<?xml version="1.0" standalone="no"?>
<!DOCTYPE svg PUBLIC "-//W3C//DTD SVG 1.1//EN" "http://www.w3.org/Graphics/SVG/1.1/DTD/svg11.dtd" >
<svg xmlns="http://www.w3.org/2000/svg">
<metadata>Generated by IcoMoon</metadata>
<defs>
<font id="ybiconfont" horiz-adv-x="1024">
<font-face units-per-em="1024" ascent="896" descent="-128" />
<missing-glyph horiz-adv-x="1024" />
<glyph unicode="&#x20;" horiz-adv-x="0" d="" />
<glyph unicode="&#x78;" glyph-name="x" horiz-adv-x="1001" d="M281 543q-27-1-53-1h-83q-18 0-36.5-6t-32.5-18.5-23-32-9-45.5v-76h912v41q0 16-0.5 30t-0.5 18q0 13-5 29t-17 29.5-31.5 22.5-49.5 9h-133v-97h-438v97zM955 310v-52q0-23 0.5-52t0.5-58-10.5-47.5-26-30-33-16-31.5-4.5q-14-1-29.5-0.5t-29.5 0.5h-32l-45 128h-439l-44-128h-63q-20 0-45 1-25 0-41 9.5t-25.5 23-13.5 29.5-4 30v167h911zM163 247q-12 0-21-8.5t-9-21.5 9-21.5 21-8.5q13 0 22 8.5t9 21.5-9 21.5-22 8.5zM316 123q-8-26-14-48-5-19-10.5-37t-7.5-25-3-15 1-14.5 9.5-10.5 21.5-4h365q23 0 34 12t2 38q-5 13-9.5 30.5t-9.5 34.5q-5 19-11 39h-368zM336 498v228q0 11 2.5 23t10 21.5 20.5 15.5 34 6h188q31 0 51.5-14.5t20.5-52.5v-227h-327z" />
<glyph unicode="&#xe600;" glyph-name="arrowup" d="M512 811q18 0 30-13l299-298q12-13 12-31t-12-30-30-12-31 12l-225 226v-665q0-18-12.5-30.5t-30.5-12.5-30.5 12.5-12.5 30.5v665l-225-226q-13-12-31-12t-30 12-12 30 12 31l299 298q12 13 30 13v0z" />
<glyph unicode="&#xe601;" glyph-name="sousuo" d="M983.040-44.16l-219.52 222.080c62.427 71.759 100.48 166.16 100.48 269.45 0 0.221 0 0.443-0.001 0.664v-0.034c0 229.75-186.25 416-416 416s-416-186.25-416-416c0-229.75 186.25-416 416-416v0c0.187 0 0.409 0 0.63 0 103.289 0 197.691 38.054 269.949 100.906l-0.5-0.425 218.88-221.44c5.892-5.912 14.036-9.577 23.036-9.6h0.004c0.288-0.010 0.626-0.016 0.966-0.016 8.388 0 15.975 3.434 21.43 8.972l0.004 0.004c6.040 5.829 9.79 13.995 9.79 23.037 0 8.725-3.492 16.635-9.155 22.408l0.005-0.005zM448 96c-194.404 0-352 157.596-352 352s157.596 352 352 352c194.404 0 352-157.596 352-352v0c-0.364-194.258-157.742-351.636-351.965-352h-0.035z" />
<glyph unicode="&#xe602;" glyph-name="untitled" d="M690 326q62 44 98 111.5t36 145.5q0 129-91.5 220.5t-221 91.5-221-91.5-91.5-220.5q0-78 36-145.5t98-110.5q-139-55-225.5-179t-86.5-277v0h88v1q0 153 102 266.5t252 131.5q56 5 101-1h3l1-1q147-21 245.5-133.5t98.5-262.5v-1h89q0 153-86 277t-225 178zM512 349q-97 0-165.5 68.5t-68.5 165.5 68.5 165.5 165.5 68.5 165.5-68.5 68.5-165.5-68.5-165.5-165.5-68.5z" />
<glyph unicode="&#xe603;" glyph-name="erweima" d="M542 717v-34l56-12v46h-56zM426 717v-46l45 16v30h-45zM477 832v-111h65v56h56v55h-121zM127 472v-115h84v58h-36v57h-48zM66 357h57v-49h-57v49zM429 59h49v-50h-49v50zM690 103l-28-36h49zM605 51h51v-62h115v-50h-293v49h125zM838 290l-43-81 43-24v105zM838 172h121v-121zM843 472h56v-50h-56v50zM843 353h63v69h53v-184h-48v70h-68v45zM766 733h94v-96h-94v96zM719 624v159h182v-190h-150l44-60h164v299h-304v-169zM169 733h92v-91h-92v91zM302 607v170h-183v-188h176l-42-56h-187v299h305v-190zM169 138h98v-98h-98v98zM306 150v-155h-183v190h156l-33 58h-180v-304h297v159zM521 608q5 1 13.5 0.5t33-4 46.5-11 50-24 48.5-40 35.5-62 18-87.5v-12.5t-4-33-12-47-26-50-43-48-66.5-35-93.5-16.5q-5 1-13 1.5t-32 6-45.5 14.5-47.5 27.5-44.5 43-30.5 63.5-11 86h-62q0-5 0.5-15.5t5.5-40 14.5-56.5 31-60.5 50.5-58 77-43 108-21.5h17t41.5 5.5 58 15 62 31.5 59 52 42 80 18.5 111q1 6 0.5 16t-5.5 38.5-15 54.5-32 58-52.5 55.5-81.5 40.5-115 18zM521 608h-11.5t-29-4.5-41.5-12-45.5-25-44.5-40.5-33.5-61-18.5-85h-62q1 6 2 15.5t7 38 16.5 54 32 57.5 50.5 55.5 74.5 40.5 101.5 20zM703 138l182-183q3-2 8-5.5t20-4.5 29 10q4 3 8 8t5 21-13 33l-181 176q-40-43-58-55z" />
<glyph unicode="&#xe604;" glyph-name="reqiqiu" d="M511 891q75 0 143-26.5t119.5-73.5 80-109 28.5-131q0-37-8-73-8-35-23-68-28-66-211-274-9-9-19-20v-41h-213v44q-17 19-56 59-33 35-51 54t-47.5 53.5-46 61-34.5 61-26 70.5-8 73q0 69 29 131t80.5 109 119 73.5 143.5 26.5v0zM596 9l-18-134h-121l-19 134h158zM510 137h64q23 92 36 148t26.5 138 16 142-3.5 130.5-25 132.5q-55 18-113 18h-5q-9-81-10.5-178.5t2-173 8-181.5 4.5-176v0zM312 784q-172-210-8-486 27-31 83-90 36-37 53-55-7 22-22 70t-23.5 76-21 75.5-18 80.5-11 77.5-3 80.5 8.5 75 22 75 39 69q-54-16-99-48v0zM746 754q30-68 32.5-152.5t-18-165-59.5-157.5q87 104 106 147 13 31 20 61 7 31 7 64 0 117-88 203z" />
<glyph unicode="&#xe605;" glyph-name="yousanjiao" d="M123-65v898l778-449-778-449zM180 735v-702l607 351z" />
<glyph unicode="&#xe606;" glyph-name="yulan" d="M514.5 703q-50.5 0-102.5-17.5t-94.5-45.5-82.5-62-70-68-52.5-62-34.5-46l-11-17q4-7 11.5-18.5t33.5-44.5 53.5-63 69-66.5 83-63 94-44.5 103.5-18q52-2 104.5 15t95.5 45 82.5 62 69 68 51.5 63 33.5 46.5 11.5 18.5q-5 6-12.5 17.5t-33 44.5-53 63-69.5 67-83.5 63.5-94 44.5-103 18zM514 131q-156 0-316 173-41 45-66 81 7 11 20 28t53.5 61 83 77.5 104.5 61 121 27.5 120-26 106-63.5 81.5-75 55.5-63.5l19-27q-7-10-20-27t-53.5-61-83-77.5-104.5-61-121-27.5zM512 545q-66 0-113-47t-47-113.5 47-113 113-46.5 113 46.5 47 113-47 113.5-113 47zM512 289q-40 0-68 28t-28 67.5 28 68 68 28.5 68-28.5 28-68-28-67.5-68-28z" />
<glyph unicode="&#xe607;" glyph-name="tuozhuai" d="M575 629h141l-205 203-203-203h141v-190h-190v-126h190v-190h126v190h189v126h-189v190zM511-64l190 187h-378zM71 377l188-190v378zM764 565v-378l189 190z" />
<glyph unicode="&#xe608;" glyph-name="wenjian" d="M489 777q37 16 76 0 42-17 348-147 31-14 29.5-33.5t-29.5-31.5q-324-136-344-144-43-17-80-1-92 39-356 150-20 8-20 28t20 29q17 7 177.5 75t178.5 75zM172 598q322-137 336-142 20-8 39 0l336 142q-330 140-338 143-6 3-17 3t-17-3zM904 475q-341-144-357-151-19-8-39 0-14 6-357 151v0l-16-38q332-140 354-149 37-16 80 1l351 148zM904 343q-341-144-357-150-19-8-39 0-13 5-357 150v0l-16-37q332-140 354-149 37-16 80 1 10 4 97.5 41t170.5 72l83 35zM903 212q-340-144-356-151-19-8-39 0-6 2-95.5 40t-175.5 74.5l-86 36.5-16-38q332-140 354-149 37-16 80 1 10 4 97.5 41t170.5 72l83 35z" />
<glyph unicode="&#xe609;" glyph-name="liebiao" d="M922 347h-566q-16 0-27 11t-11 26.5 11 26.5 27 11h566q15 0 26-11t11-26.5-11-26.5-26-11v0zM922 647h-566q-16 0-27 11t-11 26.5 11 26.5 27 11h566q15 0 26-11t11-26.5-11-26.5-26-11v0zM137 9q-32 0-54 22t-22 53 22 53 53.5 22 53.5-22 22-53-22-53-53-22v0zM137 309q-32 0-54 22t-22 53.5 22 53.5 53.5 22 53.5-22 22-53.5-22-53.5-53-22v0zM137 610q-32 0-54 22t-22 53 22 53 53.5 22 53.5-22 22-53-22-53-53-22v0zM356 122h566q15 0 26-11t11-26.5-11-26.5-26-11h-566q-16 0-27 11t-11 26.5 11 26.5 27 11v0z" />
<glyph unicode="&#xe60a;" glyph-name="jiaoyu" d="M852 674q-83 2-158-18-88-23-152-63v-477q60 32 137 55 85 24 173 19v44q33-1 59 9v-89q-2-12-11.5-19.5t-21.5-5.5q-93 11-183-15-88-25-166-74v0 0 0h-1l-1-1h-1v-1h-2v-1h-3v-1h-4v-1h-10v1h-4v1h-2l-1 1h-1l-1 1h-1l-1 1h-1q-89 55-153 74-90 26-183 15-12-2-21.5 5.5t-11.5 19.5v84q27-7 59-3v-45q87 5 173-19 51-15 125-55v477q-74 46-141 63-74 20-157 18v-165q-33 4-59 2v191q0 13 8.5 21.5t20.5 8.5h1q195 11 356-88 163 99 369 88v0q13 0 21.5-8.5t8.5-21.5v-193q-26 4-59 1v164zM806 464q-2-19-3-39l26-9-26-3q-1-21 0-41l20-9-20-3q1-21 3-43l18-4-17-3q2-15 4-31 71-20 104 10 28 25 38.5 68.5t-3.5 85.5q-5 16-23.5 24t-43.5 7-42.5-3.5-34.5-6.5v0zM218 464q-17 4-34.5 6.5t-42.5 3.5-43.5-7-23.5-24q-14-42-3.5-85.5t38.5-68.5q33-30 104-10 2 16 4 31l-17 3 18 4q2 22 3 43l-20 3 20 9q1 20 0 41l-26 3 26 9q-1 19-3 39z" />
<glyph unicode="&#xe60b;" glyph-name="designer" d="M394 187l-150-91q-11-4-18 3t-2 17l91 151zM659 630l99-98-315-315q-55 55-98 99zM758 729q8 8 19.5 8t19.5-8l59-59q8-8 8-19.5t-8-20.5l-59-59-97 100zM291 326l-120-244q-8-21 5.5-34.5t33.5-4.5l244 121q18 3 28 14l433 433q16 16 16 39t-16 40l-98 98q-17 16-40 16t-39-16l-433-433q-10-11-14-29v0zM904 496v-448q0-23-19-39.5t-42-16.5h-668q-23 0-39 16t-16 39v668q0 24 16.5 42.5t39.5 18.5h448v56h-448q-46 0-79-35t-33-82v-668q0-46 32.5-78.5t78.5-32.5h668q46 0 81.5 33t35.5 79v448h-56zM663.5 77q-11.5 0-20 8.5t-8.5 19.5v64q0 12 8.5 20t20 8 19.5-8 8-20v-64q0-11-8-19.5t-19.5-8.5zM786 77q-12 0-20 8t-8 20v224q0 12 8 20t20 8q11 0 19.5-8t8.5-20v-224q0-11-8.5-19.5t-19.5-8.5zM194 508v135h56v-135h-56zM194 699h194v-56h-194v56z" />
<glyph unicode="&#xe60c;" glyph-name="dianshang" d="M512.5 836q-91.5 0-175-36t-143.5-96-95.5-143.5-35.5-174.5 35.5-174.5 95.5-143.5 143.5-96 175-36 174.5 36 143.5 96 96 143.5 35.5 174.5-35.5 174.5-96 143.5-143.5 96-174.5 36zM512-9q-107 0-198 53t-144 144-53 198q0 137 85 245 0-10 5-18 7-9 18-11l51-9 56-294-35-105q-1-2-1-4-1-2-1-4v-2l2-6t1-4q1-2 3-5l5-5q2-2 4-2l4-2v-2l489 1v1q19 6 19 26 0 12-8 20t-20 8h-428l19 68q5 8 4 19v1l-64 321-1 9h-2q-5 8-14 11l-74 14-8 1q55 58 129 90.5t157 32.5q108 0 199-53t144-144 53-198-53-198-144-144-199-53v0zM425.5 140q-17.5 0-30.5-12.5t-13-30.5 13-30.5 30.5-12.5 30 12.5 12.5 30.5-12.5 30.5-30 12.5zM686 140q-18 0-30.5-12.5t-12.5-30.5 12.5-30.5 30.5-12.5 30.5 12.5 12.5 30.5-12.5 30.5-30.5 12.5zM834 535v2q-1 5-5 10-2 4-5 6-1 1-3 2-3 2-5 2-2 1-3 2h-439v-1q-18-7-18-26.5t18-26.5v-1h394l-57-186h-267v-2q-19-6-19-26t19-26v-2l285 1q16-2 25 13h1l77 244q0 1 1 2l4 13h-3z" />
<glyph unicode="&#xe60d;" glyph-name="qitasheshi" d="M959 683q0 62-43.5 105.5t-105.5 43.5h-597q-62 0-105.5-43.5t-43.5-105.5v-597q0-62 43.5-105.5t105.5-43.5h597q62 0 105.5 43.5t43.5 105.5v597zM885 112q0-42-30-72t-72-30h-544q-42 0-71.5 30t-29.5 72v543q0 43 29.5 72.5t71.5 29.5h544q42 0 72-29.5t30-72.5v-543zM271 446q-26 0-44-18t-18-44 18-44 44-18 44.5 18 18.5 44-18.5 44-44.5 18zM512 446q-26 0-44-18t-18-44 18-44 44-18 44 18 18 44-18 44-44 18zM753 446q-26 0-44.5-18t-18.5-44 18.5-44 44.5-18 44 18 18 44-18 44-44 18z" />
<glyph unicode="&#xe60e;" glyph-name="fanhui" d="M801 479q42-25 82.5-84t59.5-131q22-84 22-190-34 55-48 75-11 15-28 34t-55.5 49.5-80.5 49.5q-40 19-100.5 27.5t-101.5 7.5h-41v-175l-419 297 419 297v-176q101-8 154-19 39-8 73.5-23.5t48.5-27.5z" />
<glyph unicode="&#xe60f;" glyph-name="iconfontxunzhaohunlifuwu" d="M864 804h-544q-5 0-12.5-0.5t-26.5-6.5-34-16.5-27-34-12-54.5v-640h-160q-1-6-1-15.5t3-34.5 11.5-44 30-34.5 52.5-15.5h672q3 0 12 1t27.5 7.5 33.5 18.5 27 38.5 12 62.5v624h64q-2 1 0.5 15t-4 36-17 42.5-39 35.5-68.5 15zM144-44q-21 0-33 12t-13 24l-2 12h96q0-2-0.5-5t-3-11.5-7-15-14.5-11.5-23-5zM880 38q0-23-6.5-40t-15.5-24.5-19.5-12-15.5-5-7-0.5h-592q32 32 32 96v640q0 3 0.5 7t4 15 9.5 19.5 19 15.5 31 7q28 0 44-16t18-32l2-16v-32h496v-622zM432 708q0 32-24 48h472q2 0 5-0.5t11.5-3 15-7 11.5-14.5 5-23h-496zM544 324h272v-48h-272v48zM544 500h272v-48h-272v48zM384 116l-48 48-32-32 80-80 112 112-32 32zM544 132h272v-48h-272v48zM384 308l-48 48-32-32 80-80 112 112-32 32zM304 500l80-80 112 112-32 32-80-80-48 48z" />
<glyph unicode="&#xe610;" glyph-name="department" d="M474 270h76v76h229q28 0 39.5-1.5t22-9 12.5-22 2-43.5v0h77v76q0 76-77 76h-305v76h-76v-76l-291-5q-38 0-64.5-27t-26.5-65v-55h77v7q0 24 1 33.5t8 19.5 22.5 13 44.5 3h229v-76zM366 575h292q18 0 31.5 14.5t13.5 35.5v129q0 21-13.5 35.5t-31.5 14.5h-292q-19 0-32-14.5t-13-35.5v-129q0-21 13-35.5t32-14.5zM211 193h-161q-14 0-24-14t-10-34v-133q0-20 10-34t24-14h161q14 0 24 14t10 34v133q0 20-10 34t-24 14zM592 193h-160q-14 0-24-14t-10-34v-133q0-20 9.5-34t24.5-14h160q15 0 24.5 14t9.5 34v133q0 20-9.5 34t-24.5 14zM974 193h-161q-14 0-24-14t-10-34v-133q0-20 10-34t24-14h161q14 0 24 14t10 34v133q0 20-10 34t-24 14z" />
<glyph unicode="&#xe611;" glyph-name="filetext2" d="M918 667q-34 47-87 100-53 52-100 87-58 42-91 42h-496q-33 0-56.5-23.5t-23.5-56.5v-864q0-33 23.5-56.5t56.5-23.5h736q33 0 56.5 23.5t23.5 56.5v624q0 33-42 91zM785.5 721.5q42.5-42.5 72.5-81.5h-154v154q39-30 81.5-72.5zM896-48q0-7-4.5-11.5t-11.5-4.5h-736q-7 0-11.5 4.5t-4.5 11.5v864q0 7 4.5 11.5t11.5 4.5h496v-224q0-13 9.5-22.5t22.5-9.5h224v-624zM736 64h-448q-13 0-22.5 9.5t-9.5 22.5 9.5 22.5 22.5 9.5h448q13 0 22.5-9.5t9.5-22.5-9.5-22.5-22.5-9.5zM736 192h-448q-13 0-22.5 9.5t-9.5 22.5 9.5 22.5 22.5 9.5h448q13 0 22.5-9.5t9.5-22.5-9.5-22.5-22.5-9.5zM736 320h-448q-13 0-22.5 9.5t-9.5 22.5 9.5 22.5 22.5 9.5h448q13 0 22.5-9.5t9.5-22.5-9.5-22.5-22.5-9.5z" />
<glyph unicode="&#xe612;" glyph-name="heilongjiangtubiao02" d="M825 460l-341-409-249 213 56 62 185-151 282 332zM192 154q0-59 39.5-101t95.5-42h369q56 0 95.5 42t39.5 101v360q0 52-31.5 91.5t-78.5 49.5q4-27 4-49h26v-52h-479v52h27q0 22 3 49-47-10-78.5-49.5t-31.5-91.5v-360zM904 537v-390q0-87-58-149t-140-62h-388q-82 0-140 62t-58 149v390q0 84 54 144.5t131 65.5q29 85 95 85h224q66 0 95-85 77-5 131-65.5t54-144.5v0zM661 633q0 41-12.5 82.5t-36.5 41.5h-198q-25 0-37.5-41.5t-12.5-82.5l292 3z" />
<glyph unicode="&#xe613;" glyph-name="zhuzhuangtu" d="M192 320h192v-320h-192v320zM448 704h192v-704h-192v704zM704 512h192v-512h-192v512z" />
<glyph unicode="&#xe614;" glyph-name="chevron" d="M249 362l479-480q11-10 25.5-10t25 10.5 10.5 25-10 25.5l-456 456 448 448q11 10 11 24.5t-10.5 24.5-24.5 10-25-10l-465-466q-1 0-4-6-1 0-2-0.5t-2-1.5q-10-10-10-25t10-25z" />
<glyph unicode="&#xe615;" glyph-name="gengduo" d="M512 878q-102 0-194.5-39.5t-159-106.5-106-159.5-39.5-194 39.5-194 106-159.5 159-106.5 194.5-39.5 194.5 39.5 159 106.5 106 159.5 39.5 194-39.5 194-106 159.5-159 106.5-194.5 39.5zM356 331q-19 0-33 14t-14 33.5 14 33 33 13.5 33-13.5 14-33-14-33.5-33-14zM512 331q-19 0-33 14t-14 33.5 14 33 33 13.5 33-13.5 14-33-14-33.5-33-14zM668 331q-19 0-33 14t-14 33.5 14 33 33 13.5 33-13.5 14-33-14-33.5-33-14z" />
<glyph unicode="&#xe616;" glyph-name="ok" d="M308 756q11 23 5 47t-27 36q-21 13-45.5 6.5t-37.5-27.5q-3-6-10.5-25t-19.5-60-18.5-90.5-8-116 10.5-136.5q-4-12-9.5-33t-13.5-80-5.5-111.5 26.5-114 71-102.5 139-62 219-6q76 9 160 55.5t106 90.5q29 55-5 85-19 17-44.5 15t-41.5-20q-33-38-82-38-45 0-77 32t-32 77 32 77 77 32q33 0 61-19.5t41-50.5q9-23 32-33.5t46.5-1.5 33.5 32 1 47q-26 66-85 107t-130 41q-44 0-66-4t-58-16q24 51 58 96t64 71 60.5 46.5 45 27.5 20.5 9q24 7 35.5 29.5t4 46.5-29.5 35.5-46 4.5q-1 0-2-1-10-3-19-5.5t-33.5-13-46.5-23.5-53.5-37-59.5-52.5-60.5-71-60.5-91.5q4 54 22 106t38.5 86.5 44 64 36 41 18.5 15.5q20 15 24.5 39.5t-9.5 45-39 25-46-9.5q-10-7-23.5-18t-48-48.5-63-80.5-57.5-115-43-151q-1 6-3.5 17.5t-5.5 46-2 68.5 9.5 79.5 25.5 84.5z" />
<glyph unicode="&#xe617;" glyph-name="jiantou" d="M768 384l-465-512-47 51 419 461-419 461 47 51z" />
<glyph unicode="&#xe618;" glyph-name="s" d="M931-35h-838l838 838v-838z" />
<glyph unicode="&#xe619;" glyph-name="tuandui" d="M630 409q34 27 54 66t20 83q0 79-56.5 135t-135.5 56-135-56-56-135q0-44 19.5-83t53.5-66q-89-36-145-116t-56-179v-63q0-13 9.5-22.5t22.5-9.5h574q14 0 23 9.5t9 22.5v63q0 99-55.5 179t-145.5 116v0 0 0zM374 559q0 57 40.5 97t98 40 98-40 40.5-97-40.5-97.5-98-40.5-98 40.5-40.5 97.5v0 0 0zM783 71h-542v34q0 111 79.5 190t191.5 79 191.5-79 79.5-190v-34zM265 379l6 2q23 8 23 30 0 21-22 29-25 12-40.5 35.5t-15.5 51.5q0 30 22.5 55t52.5 35q10 31 30 56 4 6 7 11-1 0-3.5 0.5t-3.5 0.5q-66 0-113-46.5t-47-111.5q0-61 42-107-63-32-100.5-92.5t-37.5-132.5v-49q0-13 9.5-22.5t22.5-9.5h57q0 25 7 57h-41v24q0 66 40.5 117t104.5 67v0 0 0zM821 420q42 46 42 107 0 65-47 111.5t-113 46.5h-3.5t-3.5-1q4-5 7-10 20-26 30-57 31-10 55.5-35.5t24.5-54.5q0-28-15-51.5t-41-35.5q-22-8-22-29 0-22 23-30l7-2q63-16 103.5-67t40.5-117v-24h-46q7-32 7-57h57q13 0 22.5 9.5t9.5 22.5v49q0 72-37.5 132.5t-100.5 92.5v0 0 0z" />
<glyph unicode="&#xe61a;" glyph-name="chouti" d="M768 831h-512l-206-184v-699h920v699zM278 777h465l140-123h-259v-10q0-46-35-81t-81-35q-43 0-77 35t-34 81v7h-260zM916 5h-808v267h238q19-57 58-86 51-40 108-40v0q54 0 100 36t62 90h238v-267h4zM407 272h210q-14-30-43.5-49t-61.5-19-61.5 19-43.5 49zM916 326h-808v271h238q19-58 58-87 51-39 108-39v0q54 0 100 35.5t62 90.5h238v-271h4z" />
<glyph unicode="&#xe61b;" glyph-name="xianshiqi" d="M896 128q27 0 45.5 18.5t18.5 45.5v512q0 27-18.5 45.5t-45.5 18.5h-768q-27 0-45.5-18.5t-18.5-45.5v-512q0-27 18.5-45.5t45.5-18.5h320v-96h-112q-7 0-11.5-4.5t-4.5-11.5v-32q0-7 4.5-11.5t11.5-4.5h352q7 0 11.5 4.5t4.5 11.5v32q0 7-4.5 11.5t-11.5 4.5h-112v96h320zM544 191q0-13-9.5-22.5t-22.5-9.5-22.5 9.5-9.5 22.5 9.5 22.5 22.5 9.5 22.5-9.5 9.5-22.5zM896 672v-416h-768v416q0 13 9.5 22.5t22.5 9.5h704q13 0 22.5-9.5t9.5-22.5z" />
<glyph unicode="&#xe61c;" glyph-name="fankui" horiz-adv-x="1025" d="M789 469h-553q-10 0-16.5-6t-6.5-15v-43q0-9 6.5-15t16.5-6h553q9 0 15.5 6t6.5 15v43q0 9-6.5 15t-15.5 6zM789 640h-553q-10 0-16.5-6.5t-6.5-15.5v-42q0-9 6.5-15.5t16.5-6.5h553q9 0 15.5 6.5t6.5 15.5v42q0 9-6.5 15.5t-15.5 6.5zM885 896h-745q-58 0-99-41t-41-99v-510q0-57 34.5-87.5t93.5-30.5h86v-256l256 256h426q58 0 93 35t35 93v500q0 58-41 99t-98 41zM939 299q0-39-23.5-62.5t-61.5-23.5h-427l-128-128v128h-128q-39 0-62 23.5t-23 62.5v426q0 39 23 62.5t62 23.5h683q38 0 61.5-23.5t23.5-62.5v-426z" />
<glyph unicode="&#xe61d;" glyph-name="morebarrow" d="M696 462q-81-93-185-211-40 45-185 211h370zM500 791h30q35-2 70-9 99-22 176-88 84-72 121-177 17-50 21-102 0-2 0.5-5.5t0.5-7v-34.5q-1-4-1-10.5t-0.5-12-1.5-10.5q-5-47-22-93-31-82-92-144-67-67-155-98-51-18-104-22h-6t-6.5-0.5-5.5-0.5h-30q-36 2-70 10-99 22-176 87-85 72-121 177-18 50-22 102l-1 18v26l1 4q0 3 0.5 10t1 12 0.5 10q5 47 23 93 30 82 92 144 66 67 154 98 51 18 104 22 3 0 6 0.5t6.5 0.5h6.5zM512 40q93-1 172.5 45t125.5 125.5 47 173.5q0 93-46 172.5t-125.5 125.5-173.5 47q-93 0-172-46t-125.5-125.5-46.5-172.5q-1-94 45-173t125.5-125.5 173.5-46.5z" />
<glyph unicode="&#xe61e;" glyph-name="picture" d="M647 517.5q0-36.5 26-62.5t62.5-26 62.5 26 26 62.5-26 62.5-62.5 26-62.5-26-26-62.5zM911 741q2 0 5.5-0.5t11.5-3 14.5-7 11.5-13.5 5-21v-624q0-2-0.5-5t-3.5-10.5-7.5-13.5-14-11-22.5-5v714zM65 72q0-2 0.5-5t3-11 7-14 14-10.5 21.5-4.5h800v132h-87l-178 180-134-135-182 225-179-269-40-1-1 537h-45v-624zM911 741h-800q-2 1-5 0.5t-11-3-14-6.5-11-13.5-5-22.5h846v45z" />
<glyph unicode="&#xe61f;" glyph-name="date" d="M795 262h-55q-15 0-26-11t-11-26v-56q0-15 11-26t26-11h55q15 0 25.5 11t10.5 26v56q0 15-10.5 26t-25.5 11v0zM912 756h-39q-12 0-20-8t-8-20v-66q0-36-25-62t-61-26-61.5 26-25.5 62v66q0 12-8 20t-20 8h-229q-12 0-20-8t-8-20v-66q0-36-25-62t-61-26-61.5 26-25.5 62v66q0 12-8 20t-20 8h-43q-26 0-44-18.5t-18-44.5v-697q0-26 18-44.5t44-18.5h769q26 0 44 18.5t18 44.5v697q0 26-18 44.5t-44 18.5v0zM892 45v-2q-1-11-8.5-18.5t-17.5-7.5h-676q-11 0-18.5 8t-7.5 18v462q0 12 8 19.5t19 7.5h673q11 0 19-7.5t9-18.5v-461zM758 614q20 0 34 14t14 34v0 122q-2 18-15.5 30t-31.5 12q-20 0-34-14.5t-14-34.5v0-121q2-18 15.5-30t31.5-12v0zM301 614q19 0 33 14t14 34h1v122q-3 18-16 30t-32 12-33-14.5-14-34.5h-1v-121q3-18 16.5-30t31.5-12v0z" />
<glyph unicode="&#xe620;" glyph-name="mtext" horiz-adv-x="1388" d="M786 14l364 361 1-361h-365zM1111 530h-809q-18 0-30.5-12.5t-12.5-30.5v0q0-18 12.5-30.5t30.5-12.5h809q18 0 30.5 12.5t12.5 30.5v0q0 18-12.5 30.5t-30.5 12.5zM300 659h809q18 0 30.5 12.5t12.5 30.5v0q0 17-12.5 30t-30.5 13h-809q-18 0-30.5-13t-12.5-30v0q0-18 12.5-30.5t30.5-12.5zM302 100q-18 0-30.5-12.5t-12.5-30.5v0q0-18 12.5-30.5t30.5-12.5h398l86 86h-484zM300 315q-18 0-30.5-12.5t-12.5-30.5v0q0-18 12.5-30.5t30.5-12.5h615l86 86h-701z" />
<glyph unicode="&#xe621;" glyph-name="mobilephone" d="M752 848h-449q-22 0-38-15.5t-16-38.5v-785q0-22 16-38t38-16h449q23 0 38.5 16t15.5 38v785q0 23-15.5 38.5t-38.5 15.5v0 0zM477 781h101q6 0 10-4.5t4-10-4-10-10-4.5h-101q-6 0-10 4.5t-4 10 4 10 10 4.5v0 0zM528-2q-19 0-32 13t-13 31 13 31 31.5 13 31.5-13 13-31-13-31-31-13v0 0zM754 124h-453v581h453v-581z" />
<glyph unicode="&#xe622;" glyph-name="mail" d="M528 351l415 346q-1 0-3 0.5t-4 0.5h-817q-2 0-4-0.5t-3-0.5zM973 661q0 4-2 11l-294-246 295-294q1 7 1 9v520zM84 672q-2-7-2-11v-520q0-2 1-9l295 294zM648 403l-109-91q-5-4-11.5-4t-11.5 4l-109 91-297-298q7-2 9-2h817q2 0 9 2z" />
<glyph unicode="&#xe623;" glyph-name="morebarrow1" d="M677 469l-149-150-150 150q-5 5-12 5t-12-5-5-12 5-12l152-152q9-9 21.5-9t21.5 9l152 152q5 5 5 12t-5 12-12 5-12-5v0 0zM528 784q-105 0-193-51.5t-139-139.5-51-192 51-192.5 139-139.5 192.5-51 192.5 51 139 139.5 51 192.5-51 192-139 139.5-192 51.5v0 0zM528 51q-95 0-175.5 47t-127.5 127.5-47 175.5 47 175.5 127.5 127 175 46.5 175-46.5 127.5-127 47-175.5-47-175.5-127.5-127.5-174.5-47v0 0z" />
<glyph unicode="&#xe624;" glyph-name="text" d="M115 623h693q14 0 23.5 9.5t9.5 23.5v16q0 14-9.5 23.5t-23.5 9.5h-693q-13 0-23-9.5t-10-23.5v-16q0-14 10-23.5t23-9.5v0zM940 441h-825q-13 0-23-9.5t-10-23.5v-16q0-14 10-23.5t23-9.5h825q14 0 23.5 9.5t9.5 23.5v16q0 14-9.5 23.5t-23.5 9.5v0zM808 177h-693q-13 0-23-9.5t-10-23.5v-16q0-14 10-23.5t23-9.5h693q14 0 23.5 9.5t9.5 23.5v16q0 14-9.5 23.5t-23.5 9.5v0z" />
<glyph unicode="&#xe625;" glyph-name="checkbox" d="M974 737q0 46-33 79t-79 33h-669q-46 0-79-33t-33-79v-670q0-46 33-78.5t79-32.5h669q46 0 79 32.5t33 78.5v670zM918 67q0-25-15.5-40t-40.5-15h-669q-25 0-40.5 15t-15.5 40v670q0 25 15.5 40.5t40.5 15.5h669q25 0 40.5-15.5t15.5-40.5v-670zM723 597l-274-273-117 117q-17 17-39 17t-39-17-17-39 17-39l195-195 357 357q17 17 17 39t-17 39q-17 16-41.5 14t-41.5-20v0z" />
<glyph unicode="&#xe626;" glyph-name="radio" d="M526.5 786q-104.5 0-193-51.5t-140-140-51.5-193 51.5-193 140-140 193-51.5 193 51.5 140 140 51.5 193-51.5 193-140 140-193 51.5zM526 55q-94 0-173.5 46.5t-126 126-46.5 173.5 46.5 174 126 126 173.5 46 174-46 126-126 46-174-46-173.5-126-126-174-46.5zM315 401v0q0-87 62-149t149.5-62 149.5 62 62 149v0q0 88-62 150t-149.5 62-149.5-62-62-150z" />
<glyph unicode="&#xe627;" glyph-name="enclosure" d="M383-46q-106 0-180 74t-74.5 179.5 71.5 179.5q376 376 406 407 56 55 134 55t133-55 55-133q0-79-55-134l-408-407q-35-32-81.5-31t-80 34-34.5 80 31 81q3 4 363 361 9 8 21 8t20.5-8.5 8.5-21-8-20.5q-343-340-362-359-15-17-14.5-40t17-39 39-16.5 39.5 14.5l407 406q38 38 38 92 0 53-38 91t-91.5 38-91.5-38q-13-13-405-406-56-57-55.5-138t57-138 137.5-57.5 138 55.5q4 4 5 4l352 352q8 8 20.5 8t21-8.5 8.5-20.5-9-21l-354-354q-76-74-181-74v0 0z" />
<glyph unicode="&#xe628;" glyph-name="form" d="M530 793h386q34 0 47-13t13-46v-666q0-34-13-47t-46-13h-780q-31 0-44.5 13t-13.5 44v673q0 29 13.5 42t43.5 13h394zM361 218h-223v-151h223v151zM639 66v151h-222v-151h222zM695 67h222v151h-222v-151zM138 421v-150h222v150h-222zM694 269h213q3 0 7 4t4 7q1 30 1 140h-225v-151zM416 271h223v149h-223v-149zM360 472v151h-224q0-110 1-137 0-3 5.5-8t8.5-5q47-1 209-1v0zM417 474h221v149h-221v-149zM917 474v150h-222v-150h222z" />
<glyph unicode="&#xe629;" glyph-name="setting" horiz-adv-x="1109" d="M657.067 409.6c0 59.733-42.667 102.4-102.4 102.4s-102.4-42.667-102.4-102.4c0-59.733 42.667-102.4 102.4-102.4s102.4 42.667 102.4 102.4zM256-42.667c0 17.067 8.533 25.6 17.067 34.133l196.267 128c17.067 8.533 42.667 8.533 51.2-8.533s8.533-42.667-8.533-51.2l-85.333-59.733h366.933l230.4 409.6-238.933 409.6h-469.333l-230.4-409.6 153.6-256c8.533-17.067 8.533-42.667-17.067-51.2-17.067-8.533-42.667-8.533-51.2 17.067l-162.133 281.6c-8.533 8.533-8.533 25.6 0 42.667l256 443.733c8.533 0 17.067 8.533 34.133 8.533h512c17.067 0 25.6-8.533 34.133-17.067l256-443.733c8.533-8.533 8.533-25.6 0-42.667l-256-443.733c-8.533-8.533-17.067-17.067-34.133-17.067h-512c-25.6-8.533-42.667 8.533-42.667 25.6zM733.867 409.6c0-102.4-76.8-179.2-179.2-179.2s-179.2 76.8-179.2 179.2 76.8 179.2 179.2 179.2c102.4 0 179.2-76.8 179.2-179.2z" />
<glyph unicode="&#xe62a;" glyph-name="phone" d="M954 152l-4 6-10 11q-10 13-38 36-41 34-75 56l-45 29-20 10q-16 8-34 1-15-5-22-17l-18-26q-2-5-5-10t-11.5-22l-13.5-27q-12-21-34.5-30.5t-50.5 2.5q-96 54-161 116-94 90-127 162-7 12-1 35t25 32q13 6 32.5 14t29.5 14q6 4 13.5 8t17.5 11l3.5 3t4.5 3q1 1 2 3 18 17 9 40l-2 7q-14 31-34 66-17 27-39 58-15 19-31 33.5t-24 19.5l-8 4q-9 5-13 7-22 9-46-2-15-5-29.5-14t-20.5-14-25-20q-42-34-65.5-77t-18.5-82q10-67 83.5-186.5t171.5-212.5 223.5-162.5 196.5-78.5q74-9 159 69 36 33 53 68 6 13 7.5 28t-5.5 29v0z" />
<glyph unicode="&#xe62b;" glyph-name="component" d="M827 426q-51 0-90-36v105q0 47-33 80t-80 34v0h-104q35 38 35 90 0 55-39.5 94t-94.5 39-94-39-39-94q0-51 35-90h-148v-1q-46 0-78.5-33t-32.5-80v0l1-116q-3-23 6-43.5t30-27.5q34-13 61 25 20 29 56 29 29 0 49.5-20.5t20.5-49-20.5-49-49.5-20.5q-36 0-57 31-25 35-59 23-20-8-29.5-27.5t-8.5-40.5v-160q0-47 33-80t80-33h446q47 0 80.5 33t33.5 80v145q38-35 90-35 55 0 94 39t39 94.5-39 94.5-94 39zM827 223q-37 0-58 31-25 35-58 23-21-8-30-27.5t-8-40.5v-160q0-20-14.5-34.5t-35.5-14.5h-446q-20 0-34.5 14.5t-14.5 34.5v0 145q39-35 90-35 56 0 95 39t39 94.5-39.5 94.5-94.5 39q-50 0-90-35v104q0 21 14.5 35.5t34.5 14.5v0h158q6-1 11-1 47 0 60 38 12 34-25 60-29 21-29 57 0 29 20 49t49 20 49.5-20 20.5-49q0-36-31-58-35-24-23-58 7-21 26.5-30t40.5-8h119q21 0 35.5-14.5t14.5-35.5v-116q-3-23 6-43.5t30-28.5q34-12 61 26 21 29 57 29 28 0 48.5-20.5t20.5-49-20.5-49-48.5-20.5z" />
<glyph unicode="&#xe62c;" glyph-name="adduser02" d="M907 37h-79l1-81q0-17-11.5-28.5t-28-11.5-28 11.5-11.5 28.5v81l-80 1q-17 0-28.5 11.5t-11.5 27.5 11.5 27 28.5 11l80 1v81q0 16 11.5 27.5t28 11.5 27.5-11.5 11-27.5v-81h79q16 0 28-11.5t12-28-12-28-28-11.5v0zM628 325q24-10 52-28 7-4 19-12 1-1 5.5-4t6.5-5q1-2 1.5-6t-0.5-14.5-4.5-18.5-13.5-14.5-25-5.5q-27 10-28 11-73 46-159 49-1 0-4.5-0.5t-5.5-0.5-5.5 0.5-4.5 0.5q-118-4-204-83t-100-195h-1q0-16-11.5-28t-28-12-28 12-11.5 28l-1 4q0 7 3 14 15 103 78 185t158 123q-56 38-89 98.5t-33 130.5q0 115 81.5 196t196.5 81 196-81 81-196q0-70-32.5-130.5t-88.5-98.5zM472 752q-82 0-140-58t-58-140 58-140 140-58 140 58 58 140-58 140-140 58z" />
<glyph unicode="&#xe62d;" glyph-name="link" d="M943 384q0-74-52.5-127t-127.5-53l-107 1q-47-1-90 24 23 29 36 62 26-15 54-15h107q45 0 76.5 31.5t31.5 76.5-31.5 76.5-76.5 31.5h-107q-35 0-62.5-20t-38.5-52h101q15 0 25.5-10.5t10.5-25.5-10.5-25.5-25.5-10.5h-112q-12-62-61.5-102.5t-114.5-41.5h-107q-75 1-127.5 53.5t-52.5 126.5 52.5 127 127.5 53l107-1q47 1 90-24-22-29-36-62-25 15-54 15h-107q-45 0-76.5-31.5t-31.5-76.5 31.5-76.5 76.5-31.5h107q35 0 62.5 20t39.5 52h-102q-14 0-25 10.5t-11 25.5 10.5 25.5 25.5 10.5h112q12 62 61.5 103t114.5 41h107q75 0 127.5-53t52.5-127z" />
<glyph unicode="&#xe62e;" glyph-name="pencil" horiz-adv-x="1028" d="M927 699q4-9 6-20.5t2-24-4.5-25-15.5-23.5q-11-12-20.5-20.5t-15.5-15.5q-8-7-15-13l-179 179q11 11 27 26t27 23q13 11 27.5 15t28.5 3.5 27-4 22-8.5q20-11 44.5-37t38.5-55zM179 231q6 5 27 27t53 53l354 354 179-180-206-206-77-78q-38-37-68.5-68.5t-51-51.5-24.5-23q-9-9-21.5-18.5t-26.5-15.5q-13-6-39-16t-54-19-53.5-15.5-38.5-8.5q-26-3-34.5 7.5t-4.5 35.5q2 14 9 39t15.5 52.5 16 50.5 12.5 32q5 13 12.5 24t20.5 25z" />
<glyph unicode="&#xe62f;" glyph-name="delete" d="M823 539q-18 0-28.5-10.5t-10.5-27.5v-459q0-22-14-34t-33-12h-450q-22 0-34.5 13.5t-12.5 32.5v459q0 17-10.5 27.5t-28 10.5-28.5-10.5-11-27.5v-459q0-52 36-88t89-36h442q53 0 89 36t36 88v459q5 17-4 27.5t-27 10.5zM450 112v389q0 16-9.5 27t-21.5 11q-14 0-30.5-11.5t-16.5-26.5v-389q0-17 11-28t28.5-11 28 11 10.5 28zM652 112v389q0 16-14 27t-33 11q-31 0-31-38v-389q0-17 9.5-28t21.5-11q14 0 30.5 11.5t16.5 27.5zM900 695h-194v54q0 41-30 71t-71 30h-186q-41 0-71-30t-30-71v-54h-194q-18 0-28.5-11t-10.5-28.5 10.5-28 28.5-10.5h776q18 0 28.5 10.5t10.5 28-10.5 28.5-28.5 11zM395 749q0 23 24 23h186q24 0 24-23v-54h-234v54z" />
<glyph unicode="&#xe630;" glyph-name="cancel02" d="M823 20q-22 0-37 15l-274 274-274-274q-15-15-37-15t-37.5 15.5-15.5 37.5 15 37l274 274-274 274q-15 15-15 37t15.5 37.5 37.5 15.5 37-15l274-274 274 274q15 15 37 15t37.5-15.5 15.5-37.5-15-37l-274-274 274-274q15-15 15-37t-15.5-37.5-37.5-15.5z" />
<glyph unicode="&#xe631;" glyph-name="confirm" d="M374 84q-20 0-30 12l-254 279q-12 14-11 31.5t14 29.5q13 11 30 11 19 0 32-14l223-247 492 485q13 13 31 13 19 0 31.5-13t12.5-31-13-31l-525-515q-10-10-31-10h-2z" />
<glyph unicode="&#xe632;" glyph-name="jinrong" d="M512 830q-91 0-173.5-35.5t-142-95-95-142-35.5-173.5 35.5-173.5 95-142 142-95 173.5-35.5 173.5 35.5 142 95 95 142 35.5 173.5-35.5 173.5-95 142-142 95-173.5 35.5zM512 13q-101 0-186.5 49.5t-135 135-49.5 186.5 49.5 186.5 135 135 186.5 49.5 186.5-49.5 135-135 49.5-186.5-49.5-186.5-135-135-186.5-49.5zM477 85v69q-68 4-115 32l21 85q54-32 111-32 30 0 47.5 12t17.5 33q0 20-16.5 34.5t-55.5 28.5q-58 22-89.5 53t-31.5 81q0 49 30.5 83.5t83.5 45.5v69h66v-64q53-1 98-24l-20-82q-49 25-97 25-30 0-44-12t-14-29 18.5-31 63.5-31q59-23 85-55t26-82-31-87-88-47v-75h-66z" />
<glyph unicode="&#xe633;" glyph-name="money" d="M748 287q29 0 46.5 17.5t17.5 46.5-17.5 46.5-46.5 17.5h-140l204 383q14 24 6.5 49t-32.5 40q-24 14-49 6.5t-40-32.5l-185-351-185 351q-9 23-36.5 30t-46.5-4q-24-14-33-40t1-49l204-383h-140q-29 0-46.5-17.5t-17.5-46.5 17.5-46.5 46.5-17.5h172v-96h-172q-29 0-46.5-17.5t-17.5-46 17.5-46 46.5-17.5h172v-128q0-29 17.5-46.5t46.5-17.5 46.5 17.5 17.5 46.5v128h172q29 0 46.5 17.5t17.5 46-17.5 46-46.5 17.5h-172v96h172z" />
<glyph unicode="&#xe634;" glyph-name="adminicon" d="M32 384q0-98 38-186.5t102.5-153 153-102.5 186.5-38 186.5 38 153 102.5 102.5 153 38 186.5-38 186.5-102.5 153-153 102.5-186.5 38-186.5-38-153-102.5-102.5-153-38-186.5zM631 109q-12 7-16.5 37t-3.5 46 2 27v0l18 16q5 42 13 57t17 38 14 39l5 15q19 13 19 37 0 10-4.5 19t-9.5 13l-5 4q7 66 7 111 0 71-43 109t-123 38q-85 0-135.5-36.5t-50.5-110.5q0-20 4-48t7-45l4-18q-19-13-19-36 0-11 5-20t9-13l5-4q21-67 37-92 4-6 7-20.5t4-25.5l1-11 19-16q1-11 1.5-27t-4-46-16.5-37q-12-8-77-26t-77-25l-33 33q-117 129-122 280v13q0 115 56.5 212t153.5 153.5 212 56.5 212-56.5 153.5-153.5 56.5-212q0-96-40.5-180.5t-111.5-144.5z" />
<glyph unicode="&#xe635;" glyph-name="arrowicon" d="M510 23q-17 0-29.5 12.5t-12.5 29.5v725q0 17 12.5 29.5t30 12.5 29.5-12.5 12-29.5v-725q0-17-12.5-29.5t-29.5-12.5zM210 323q17 0 30-12l272-274 274 274q12 12 29.5 12t29.5-12.5 12-29.5-12-30l-303-303q-12-12-30-12v0q-17 0-29 12l-303 303q-12 13-12 30t12.5 29.5 29.5 12.5z" />
<glyph unicode="&#xe636;" glyph-name="row2column" d="M889 797h-757l-70-110h896zM899 687h60v-693h-60v693zM486 687h59v-693h-59v693zM62 687h60v-717h-60v717zM62 24h896v-58h-896v58z" />
<glyph unicode="&#xe637;" glyph-name="row3column" d="M897 796h-758l-69-110h896zM907 686h59v-693h-59v693zM337 686h60v-693h-60v693zM647 686h59v-693h-59v693zM70 686h59v-717h-59v717zM70 23h896v-58h-896v58z" />
<glyph unicode="&#xe638;" glyph-name="tablelayout" d="M960 756h-896v-754h896v754zM901 230h-201v118h201v-118zM901 407h-201v118h201v-118zM641 407h-251v118h251v-118zM641 348v-118h-251v118h251zM641 170v-110h-251v110h251zM700 170h201v-110h-201v110zM901 585h-201v111h201v-111zM641 696v-111h-251v111h251zM331 696v-111h-208v111h208zM123 525h208v-118h-206v-59h206v-118h-206v-60h206v-110h-208v465z" />
<glyph unicode="&#xe639;" glyph-name="childtable" d="M958 769h-896v-765h896v765zM899 255h-201v131h201v-131zM639 255h-251v131h251v-131zM639 195v-133h-251v133h251zM698 195h201v-133h-201v133zM899 445h-201v133h201v-133zM639 578v-133h-251v133h251zM121 578h208v-133h-206v-59h206v-131h-206v-60h206v-133h-208v516z" />
<glyph unicode="&#xe63a;" glyph-name="canvas" d="M1009-30h-992v836h992v-836zM75 28h875v719h-875v-719zM182 325h26v-68h-26v68zM182 521h26v-68h-26v68zM308 665h64v-26h-64v26zM506 665h32v-26h-32v26zM179 403h32v-27h-32v27zM822 403h32v-27h-32v27zM408 665h64v-26h-64v26zM565 665h64v-26h-64v26zM660 665h64v-26h-64v26zM825 521h26v-67h-26v67zM825 325h26v-67h-26v67zM661 133h64v-26h-64v26zM408 133h64v-26h-64v26zM506 133h32v-26h-32v26zM308 133h64v-26h-64v26zM565 133h64v-26h-64v26zM278 639v27h-96v-97h26v70h70zM825 569h26v97h-96v-27h70v-70zM755 133v-27h96v97h-26v-70h-70zM208 203h-26v-96h96v26h-70v70z" />
<glyph unicode="&#xe63b;" glyph-name="component1" d="M127 161v455l386 213 386-213v-455l-386-213zM542 15l307 169v415zM180 176l310-161v435l-310 148v-422zM250 629l263-138 268 129-268 148z" />
<glyph unicode="&#xe63c;" glyph-name="property" d="M534-16q-19 0-33 12l-320 195-1 2q-15 13-15 32t15 32l1 2 43 27-43 27-1 1q-15 14-15 33t15 32l1 1 33 21-33 21-1 1q-15 14-15 33t15 32v1l321 204q14 11 33 11t33-11l320-204 1-1q15-13 15-32t-15-33l-2-1-32-21 33-21 1-1q15-13 15-32t-15-33l-2-1-43-27 44-27 1-2q15-13 15-32t-15-32l-1-1-320-196q-14-12-33-12zM531 30l1-2h4l1 2 319 194v1l-1 1-54 34-234-143q-14-11-33-11t-33 11l-234 143-55-34v-2zM531 151l1-1q1-1 2-1t2 1l1 1 318 195q1 1 0 1l-44 29-244-150q-14-11-33-11t-33 11l-244 150-45-29v-1zM856 455v0.5t-1 0.5l-318 203-1 1q-1 1-2 1t-2-1v0l-320-204v-1h644z" />
<glyph unicode="&#xe63d;" glyph-name="input" d="M261 635h167v-42h-167v42zM261 342h167v-42h-167v42zM303 593h83v-251h-83v251zM847-35h-670q-35 0-59.5 24.5t-24.5 59.5v670q0 35 24.5 59.5t59.5 24.5h670q35 0 59.5-24.5t24.5-59.5v-670q0-35-24.5-59.5t-59.5-24.5v0 0zM140 61q0-21 14-35t35-14h646q21 0 35 14t14 35v646q0 21-14 35t-35 14h-646q-21 0-35-14t-14-35v-646z" />
<glyph unicode="&#xe63e;" glyph-name="line" d="M510 639l-128-179h255zM510 129l127 179h-255zM905 409h-790q-11 0-18.5-7t-7.5-18v0q0-11 7.5-18t18.5-7h790q11 0 18.5 7t7.5 18v0q0 11-7.5 18t-18.5 7v0z" />
<glyph unicode="&#xe63f;" glyph-name="money1" d="M512-33q-114 0-210.5 56t-152.5 152.5-56 210.5 56 210.5 152.5 152.5 210.5 56 210.5-56 152.5-152.5 56-210.5-56-210.5-152.5-152.5-210.5-56v0zM512 741q-96 0-178-47.5t-129.5-129.5-47.5-178 47.5-178 129.5-129.5 178-47.5 178 47.5 129.5 129.5 47.5 178-47.5 178-129.5 129.5-178 47.5v0zM512 96q-13 0-22.5 9.5t-9.5 22.5v323q0 13 9.5 22.5t22.5 9.5 22.5-9.5 9.5-22.5v-323q0-13-9.5-22.5t-22.5-9.5v0zM641 354h-258q-13 0-22.5 9.5t-9.5 22.5 9.5 22.5 22.5 9.5h258q13 0 22.5-9.5t9.5-22.5-9.5-22.5-22.5-9.5v0zM512 418q-13 0-22.5 9.5t-9.5 23 9 22.5l129 129q10 10 23 10t22.5-9.5 9.5-23-9-22.5l-129-129q-10-10-23-10v0zM512 418q-13 0-23 10l-129 129q-9 9-9 22.5t9.5 23 23 9.5 22.5-10l129-129q9-9 9-22.5t-9-23-23-9.5v0zM641 225h-258q-13 0-22.5 9.5t-9.5 22.5 9.5 22.5 22.5 9.5h258q13 0 22.5-9.5t9.5-22.5-9.5-22.5-22.5-9.5v0z" />
<glyph unicode="&#xe640;" glyph-name="password" d="M783-59h-541q-32 0-55 22.5t-23 54.5v387q0 31 21.5 53t52.5 24h42v117q0 3 1 6 2 94 69 160t162 66 163-67.5 68-163.5v-1h-3v-1q0-16-11-27.5t-27-11.5-27.5 11.5-11.5 27.5v1q0 7 2 14-5 59-49 99.5t-104 40.5q-64 0-109-45t-45-109h-1v-117h426q31 0 53-21.5t24-52.5v-390q0-32-22.5-54.5t-54.5-22.5v0 0zM783 18v62l-1-61-44-1h45zM782 405v0 0zM705 404l36 1h-419q-1 0-2-0.5t-1.5-0.5-1 0.5-1.5 0.5h-22l25-1q-47 0-62-14.5t-15-62.5v78h-1l1-387h470q42 1 56 16t15 59l-1 242q-1 43-16 56t-61 13v0zM242 97q0-49 15-64t62-15l-77 1v78z" />
<glyph unicode="&#xe641;" glyph-name="help" d="M512 832q-89 0-170-34.5t-139.5-93-93-139.5-34.5-170q0-112 53-210 3-10 10-17 12-12 29-12 16 0 27.5 11.5t11.5 28.5v4q0 5-2 11-2 9-9 16-42 78-42 168 0 98 48 180.5t130.5 130.5 180 48 180-48 130.5-130.5 48-180-48-180-130.5-130.5-180.5-48q-115 0-209 67-6 8-14 11-8 4-16 4-17 0-28.5-11.5t-11.5-28.5v-4q0-12 7-22 8-11 21-15 113-80 252-80 89 0 170 34.5t139.5 93 93 139.5 34.5 170-34.5 170-93 139.5-139.5 93-170 34.5v0zM511 224q-18 0-31-13t-13-32v-1q0-19 13-32t31.5-13 31.5 13 13 32v1q0 19-13 32t-32 13v0zM340 484q0-16 11-27t26.5-11 27 11 11.5 27v0q0 40 28 68t68 28 68-28 28-68-28-68-68-28v0h-1q-15 0-26.5-11t-11.5-27v-53q0-16 11.5-27t27-11 27 11 11.5 27v0 19q58 13 96.5 60t38.5 108q0 71-51 121.5t-122 50.5-121.5-50-50.5-121h-1l1-1z" />
<glyph unicode="&#xe642;" glyph-name="num" d="M248 220h-48v306q-18-16-46-33t-50-25v47q40 19 70 45.5t43 52.5h31v-393zM614 266v-46h-259q0 17 6 33 10 27 31.5 52.5t62.5 59.5q64 52 86.5 82.5t22.5 57.5q0 29-20.5 48.5t-53.5 19.5q-34 0-55-21t-21-57l-50 5q6 55 39 84t88 29q57 0 89.5-31.5t32.5-77.5q0-23-9.5-46t-31.5-48-74-69q-43-36-55.5-49t-20.5-26h192zM675 323l48 7q8-41 28-59t49-18q33 0 56.5 23.5t23.5 57.5-21.5 55.5-54.5 21.5q-14 0-34-6l5 42h8q30 0 55 16t25 49q0 27-18 44t-47 17q-28 0-46.5-17.5t-23.5-52.5l-48 8q9 49 40 75.5t77 26.5q32 0 59-14t41.5-37.5 14.5-50.5q0-25-13.5-46t-40.5-33q35-8 54-33.5t19-62.5q0-52-37.5-87.5t-94.5-35.5q-51 0-85 30.5t-39 79.5z" />
<glyph unicode="&#xe643;" glyph-name="code" d="M921 652q-13 0-23 9.5t-10 23.5q2 8-3 14t-14 6h-721q-9 0-14.5-6t-5.5-14q0-13-9.5-23t-23.5-10q-13 0-23 9.5t-10 23.5q0 35 24.5 59t58.5 24h722q35 0 59-24.5t24-58.5q2-14-7-23.5t-24-9.5v0 0 0 0zM871-4h-721q-36 0-60 23.5t-24 59.5q0 13 10 23t24 10q13 0 23-9.5t10-23.5q0-9 5.5-14.5t14.5-5.5h721q9 0 14.5 5.5t5.5 14.5q0 13 9.5 23t23.5 10q13 0 23-9.5t10-23.5q-4-34-30-58.5t-59-24.5v0 0 0 0zM302 363l34-8q-11-42-38.5-63.5t-67.5-21.5q-41 0-66.5 16.5t-39 48.5-13.5 68q0 40 15 69.5t43 45 62 15.5q38 0 64-19.5t36-54.5l-33-8q-9 28-25.5 40.5t-42.5 12.5q-29 0-49-14t-27.5-37.5-7.5-49.5q0-32 9-56t29-36 44-12q28 0 47.5 16t26.5 48zM361 366q0 51 29 76 24 21 58 21 38 0 62-25t24-69q0-36-10.5-56t-31-31.5-44.5-11.5q-39 0-63 25t-24 71zM393 366.5q0-35.5 15.5-53t39-17.5 39 17.5 15.5 53.5q0 34-15.5 52t-38.5 18q-24 0-39.5-17.5t-15.5-53zM690 274v23q-18-27-52-27-22 0-40 12t-28.5 34-10.5 50 9.5 50.5 27.5 34.5 41 12q17 0 30-7.5t21-18.5v91h31v-254h-29zM591 366q0-35 15-52.5t35.5-17.5 34.5 16.5 14 51.5q0 37-14.5 55t-35.5 18-35-17-14-54zM894 334l32-4q-7-29-28-44.5t-53-15.5q-40 0-63.5 25t-23.5 70q0 46 23.5 72t62.5 26q37 0 60-25.5t23-70.5v-9h-137q2-30 17-46t38-16q18 0 30 9t19 29zM792 384h102q-2 23-11 35-15 18-39 18-22 0-36.5-14.5t-15.5-38.5z" />
<glyph unicode="&#xe644;" glyph-name="simpletext" d="M458 3v690h-327v72h762v-72h-327v-690h-108z" />
<glyph unicode="&#xe645;" glyph-name="percent" d="M203 36q-16 0-27.5 11.5t-11.5 28 11 28.5l617 617q12 11 28.5 11t28-11.5 11.5-27.5-12-28l-617-617q-12-12-28-12v0 0zM892 187q0 76-53.5 130t-129.5 54-130-54-54-130 54-129.5 130-53.5 129.5 53.5 53.5 129.5v0 0zM814 187q0-43-31-74t-74.5-31-74 31-30.5 74.5 30.5 74 74 30.5 74.5-30.5 31-74.5v0 0zM498 581q0 76-53.5 130t-129.5 54-130-54-54-130 54-129.5 130-53.5 129.5 53.5 53.5 129.5v0 0zM420 581q0-43-31-74t-74.5-31-74 31-30.5 74.5 30.5 74 74 30.5 74.5-30.5 31-74.5v0 0z" />
<glyph unicode="&#xe646;" glyph-name="dropdown" d="M889 572h-754l376-376z" />
<glyph unicode="&#xe647;" glyph-name="ref" d="M513-8q-81 0-154 31-71 29-126 83.5t-85 125.5q-31 73-31 153t31 153q30 71 85 125.5t126 84.5q73 31 153.5 31t154.5-31q71-30 125.5-84.5t84.5-125.5q32-73 32-153t-32-153q-30-71-84.5-125.5t-125.5-83.5q-74-31-154-31v0zM513 705q-87 0-161-43t-117-116.5-43-160.5 43-161 117-116.5 161-42.5 160.5 42.5 116.5 116.5 43 161-43 160.5-116.5 116.5-160.5 43zM350 327q-25 0-42.5 17.5t-17.5 42.5 17.5 42.5 42.5 17.5 42.5-17.5 17.5-42.5-17.5-42.5-42.5-17.5zM523 327q-25 0-42.5 17.5t-17.5 42.5 17.5 42.5 42.5 17.5 42.5-17.5 17.5-42.5-17.5-42.5-42.5-17.5zM692 327q-25 0-42.5 17.5t-17.5 42.5 17.5 42.5 42.5 17.5 42.5-17.5 17.5-42.5-17.5-42.5-42.5-17.5z" />
<glyph unicode="&#xe648;" glyph-name="approvalhistory" d="M512 834q-111 0-207-50.5t-159-137.5v76q0 17-12 29.5t-29.5 12.5-30-12.5-12.5-29.5v-169q0-17 12.5-29.5t29.5-12.5h183q18 0 30 12.5t12 30-12 29.5-30 12h-73q50 72 128.5 113.5t169.5 41.5q100 0 184-49t133-133 49-183-49-183-133-133-184-49q-126 0-224.5 77t-129.5 196v0q-5 13-15.5 21t-24.5 8q-17 0-29.5-12.5t-12.5-29.5q0-4 2-12v0q0-1 0.5-2l1-2t0.5-2q41-143 160.5-234.5t271.5-91.5q92 0 175.5 35.5t143.5 95.5 96 143 36 174.5-36 175-96 143.5-143.5 95.5-175.5 35.5zM512.5 644q-17.5 0-30-12t-12.5-30v-252q0-18 12.5-30t29.5-12v0h183q18 0 30.5 12t12.5 29.5-12.5 30-30.5 12.5h-140v210q0 18-12.5 30t-30 12z" />
<glyph unicode="&#xe649;" glyph-name="approvaler" d="M903 193l-29-50q5-3 8-4 4-4 4-8v-103q0-3-2.5-5.5t-5.5-2.5h-162l-59-57h221q28 0 47 19t19 46v103q0 39-30 57zM424 20h-291q-3 0-5.5 2.5t-2.5 5.5v99q0 8 4 8 80 32 138 58.5t86.5 43 46 30.5 21 20 4.5 13v53l-8 9q-31 31-53 98l-5 9-8 4q-16 16-16 37 0 12 8 29l8 4v98q0 136 148 136 77 0 116.5-33.5t48.5-102.5v-94l4-8q8-17 8-29 0-26-16-37l-8-4-4-9q-21-61-54-94l-8-8v-58q1-4 11.5-15t21.5-21l10-10 60 34q-40 25-46 28v17q39 54 54 103 33 26 33 74 0 20-17 53v78q0 93-55 143.5t-154.5 50.5-154.5-50.5-55-143.5v-78q-17-22-17-53 0-45 29-74 27-67 58-103v-17q-33-33-260-123-18-6-29.5-23t-11.5-39v-103q0-27 19-46t47-19h286l9 57zM946 363l-13 13q-10 10-23 10t-23-10l-329-332-156 156q-10 10-23 10t-23-10l-16-16q-10-10-10-23t10-23l192-192q10-10 23-10 10 0 19 10l372 372q9 9 9 22t-9 23z" />
<glyph unicode="&#xe64a;" glyph-name="assigner" d="M908 191l-29-50q6-2 8-3 4-4 4-8v-103q0-3-2.5-5.5t-5.5-2.5h-162l-58-58h220q28 0 47 19t19 47v103q0 38-30 56zM430 19h-291q-3 0-5.5 2.5t-2.5 5.5v99q0 8 4 8 80 31 137.5 58t86.5 43 46 30.5 20.5 20 5.5 12.5v54l-8 8q-31 31-54 99l-4 8-8 4q-16 16-16 37 0 12 8 29l8 4v98q0 136 148 136 76 0 115.5-33.5t48.5-102.5v-94l5-8q8-17 8-29 0-26-17-37l-8-4-4-8q-21-62-53-95l-9-8v-58q1-3 12-14.5t21-21.5l11-9 60 33q-41 25-46 29v16q39 55 53 103 33 26 33 74 0 20-16 53v78q0 92-55.5 143t-154.5 51-154-51-55-143v-78q-17-22-17-53 0-45 29-74 27-67 57-103v-16q-32-33-259-124-18-6-29.5-23t-11.5-38v-103q0-28 19-47t47-19h286l9 58zM464-85l2 13v4q2 13 3 20 0 1 1 4 1 6 2 10 2 9 6 22 2 8 4 15 4 12 8 21 1 4 5 12l2 5q5 12 8 18 1 3 4 8 2 3 3 5 9 18 20 34l2 4q5 8 8 11 3 5 10 14l2 2q7 9 12 15l12 14 16 16q8 7 12 11 7 6 19 16l3 3q5 3 7 5 15 11 31 22 2 1 7 3 2 2 4 3 13 8 24 13 4 2 11 5l2 1q12 6 24 10 8 4 14 6 11 4 26 8 1 0 4 1l9 3q21 5 40 8l16 2-116 89 37 47 172-131 18-15-13-20-132-183-51 35 86 118q-4 0-8-1-121-18-207.5-103.5t-106.5-206.5l-2-6-60-10z" />
<glyph unicode="&#xe64b;" glyph-name="documentmaker" d="M910 178l-29-51q5-2 8-3 4-4 4-8v-104q0-3-2.5-5.5t-5.5-2.5h-163l-59-58h222q28 0 47 19t19 47v104q0 39-30 57l-11 5zM428 4h-294q-3 0-5.5 2.5t-2.5 5.5v100q0 8 4 8 81 32 139 59t87 43 46.5 30.5 21 20.5 5.5 13v54l-8 8q-32 31-54 100l-4 8-9 4q-16 17-16 38 0 12 8 29l8 4v99q0 137 150 137 76 0 116-33.5t49-103.5v-95l5-8q8-17 8-29 0-27-17-38l-8-4-4-8q-21-62-54-96l-8-8v-58q0-4 11-15.5t22-20.5l10-10 61 34q-41 25-46 29v16q39 55 54 104 33 26 33 75 0 20-17 53v79q0 93-55.5 144t-155.5 51-156-51-56-144v-79q-16-22-16-53 0-46 29-75 27-67 58-104v-16q-34-34-262-125-18-6-29.5-23t-11.5-39v-104q0-28 19-47t47-19h289l9 58zM526 9l41-40-51-10zM536 34l320 321 58-54q-80-79-154-153.5t-117.5-117.5-51.5-52zM873 371l25 25q6 5 9.5 5t9.5-5v0l36-36v-1q6-5 6-9t-6-9v0 0q-1-2-25-25z" />
<glyph unicode="&#xe64c;" glyph-name="canzhao" d="M169-6q-12 0-20.5 8.5t-8.5 20.5v692q0 12 8.5 20t20.5 8h409q-4-14-4-28.5t4-28.5h-380v-634h634v380q14-4 28.5-4t28.5 4v-409q0-12-8-20.5t-20-8.5h-692zM560 385q-12 0-20.5 8.5t-8.5 20.5 8 20l252 252h-111q-12 0-20.5 8.5t-8.5 20.5 8.5 20 20.5 8h181q12 0 20-8t8-20v-181q0-12-8-20.5t-20-8.5-20.5 8.5-8.5 20.5v111l-252-252q-8-8-20-8zM264 159q-10 0-17 7t-7 17 7 17 17 7h434q10 0 17-7t7-17-7-17-17-7h-434zM264 496q-10 0-17 7t-7 17 7 17.5 17 7.5h104q10 0 17-7.5t7-17.5-7-17-17-7h-104zM264 328q-10 0-17 7t-7 17 7 17 17 7h145q10 0 17-7t7-17-7-17-17-7h-145z" />
<glyph unicode="&#xe64d;" glyph-name="filter" d="M595-49v1h-1q-10 10-10 25v423q0 17 12 29l243 243q12 12 15 24 6 22-7 40t-35 19h-595q-36 0-46-31-8-23 7-43 4-6 11-12 145-146 232-232 11-12 11-29v-252q0-20-16-29-14-7-27.5 0.5t-15.5 23.5v244q0 5-3 9-168 167-229 228-32 32-32 76 0 37 22 65.5t57 37.5q14 3 29 4h590q62 0 94-53 16-27 14-59.5t-21-56.5q-7-9-14-16-125-126-234-234-3-3-3-8v-403q0-24-11-34h-37z" />
<glyph unicode="&#xe64e;" glyph-name="fuwu" d="M864 160q-40 0-68 28t-28 68v128q0 31 18 55t46 35v6q0 133-93.5 226.5t-226.5 93.5-226.5-93.5-93.5-226.5v-6q28-11 46-35t18-55v-128q0-40-28-68t-68-28-68 28-28 68v128q0 31 18 55t46 35v6q0 159 112.5 271.5t271.5 112.5 271.5-112.5 112.5-271.5v-6q28-11 46-35t18-55v-128q0-40-28-68t-68-28zM160 416q-13 0-22.5-9.5t-9.5-22.5v-128q0-13 9.5-22.5t22.5-9.5 22.5 9.5 9.5 22.5v128q0 13-9.5 22.5t-22.5 9.5zM896 384q0 13-9.5 22.5t-22.5 9.5-22.5-9.5-9.5-22.5v-128q0-13 9.5-22.5t22.5-9.5 22.5 9.5 9.5 22.5v128zM608-96h-128q-13 0-22.5 9.5t-9.5 22.5v64q0 13 9.5 22.5t22.5 9.5h128q13 0 22.5-9.5t9.5-22.5v-29q82 10 137 63.5t55 125.5h64q0-106-84.5-181t-203.5-75z" />
<glyph unicode="&#xe64f;" glyph-name="star" d="M960 478q0-12-14-26l-195-191 46-269v-10q0-12-5.5-19.5t-16.5-7.5q-10 0-21 6l-242 127-242-127q-11-6-21-6-11 0-17 7.5t-6 19.5q0 3 1 10l47 269-196 191q-14 15-14 26 0 20 30 25l271 39 121 245q10 22 26 22t27-22l121-245 270-39q30-5 30-25v0z" />
<glyph unicode="&#xe650;" glyph-name="starhalf" d="M929 514l-271 39-121 245q-10 22-26 22t-26-22l-122-245-270-39q-30-5-30-25 0-11 14-26l196-190-47-269q-1-8-1-11 0-11 5.5-19t17.5-8q9 0 21 6l242 127 242-127q11-6 21-6 11 0 16.5 8t5.5 19v11l-47 269 196 190q14 14 14 26v0q0 20-30 25zM718 284l49-283v-2l-256 134v654l128-259q286-42 287-42z" />
<glyph unicode="&#xe651;" glyph-name="starhollow" d="M928 514l-270 39-121 245q-10 22-26 22t-27-22l-121-245-270-39q-30-5-30-25 0-11 13-26l196-190-46-269q-1-8-1-11 0-11 5.5-19t16.5-8q10 0 22 6l242 127 241-127q12-6 22-6 11 0 16.5 8t5.5 19q0 7-1 11l-46 269 195 190q14 14 14 26v0q0 20-30 25zM924 485l-206-201 49-283v-2h-1l-255 134-256-134v1l49 284-207 201q0 1-1 1 1 0 2 1l285 41 128 259 128-259 285-41 1-1z" />
<glyph unicode="&#xe652;" glyph-name="plus" d="M512-46q-23 0-39.5 16.5t-16.5 39.5v318h-318q-23 0-39.5 16.5t-16.5 39.5 16.5 39.5 39.5 16.5h318v318q0 23 16.5 39.5t39.5 16.5 39.5-16.5 16.5-39.5v-318h318q23 0 39.5-16.5t16.5-39.5-16.5-39.5-39.5-16.5h-318v-318q0-23-16.5-39.5t-39.5-16.5v0z" />
<glyph unicode="&#xe653;" glyph-name="wodeyuyue" d="M842 713q-56 56-128.5 86t-151.5 30-151.5-30-128.5-86-85.5-128-29.5-151q0-20 2-41l-52 47q-10 9-23 8t-21.5-10.5-8-22.5 10.5-22l107-97q9-8 21-8 3 0 6 1h3q14 0 23 10l96 108q9 9 8.5 22t-10.5 22-23 8-21-10l-53-59q-3 22-3 44 0 90 45 166.5t121.5 121 166.5 44.5 167-44.5 121.5-121 44.5-166.5-44.5-167-121.5-121.5-167-44.5q-136 0-233 95-9 9-22 9t-22-9-9-22 9-23q56-54 127.5-83.5t149.5-29.5q79 0 151.5 30t128.5 86 86 128.5 30 151.5-30 151-86 128zM542 626q-13 0-22.5-9t-9.5-22v-190q0-13 9.5-22t22.5-9h189q13 0 22.5 9t9.5 22-9.5 22.5-22.5 9.5h-158v158q0 13-9 22t-22 9z" />
<glyph unicode="&#xe654;" glyph-name="huaban" d="M781 410q101 0 172 71t71 172-71 172-172 71-172-71.5-71-171.5v-243h243zM780.5 845q79.5 0 136-56.5t56.5-136-56.5-135.5-135.5-56h-192v192q0 79 56 135.5t135.5 56.5zM243 896q-101 0-172-71t-71-172 71.5-172 171.5-71h243v243q0 100-71 171.5t-172 71.5zM435 461h-192q-79 0-135.5 56t-56.5 135.5 56.5 136 136 56.5 135.5-56.5 56-135.5v-192zM781 358h-243v-243q0-100 71-171.5t172-71.5q57 0 107 25 10 5 13.5 15t-1.5 19.5-15 13-19-1.5q-40-20-85-20-80 0-136 56.5t-56 135.5v192h192q79 0 135.5-56t56.5-136q0-27-8-54-3-10 2-19.5t15-12.5 19.5 2 12.5 15q10 34 10 69 0 101-71 172t-172 71zM243 358q-100 0-171.5-71t-71.5-172 71-172 172-71 172 71.5 71 171.5v243h-243zM243.5-77q-79.5 0-136 56.5t-56.5 136 56.5 135.5 135.5 56h192v-192q0-79-56-135.5t-135.5-56.5z" />
<glyph unicode="&#xe655;" glyph-name="sqplus" d="M838-81h-651q-58 0-98.5 41t-40.5 98v652q0 57 40.5 98t98.5 41h651q58 0 98.5-41t40.5-98v-652q0-57-40.5-98t-98.5-41zM187 788q-32 0-55-23t-23-55v-652q0-32 23-55t55-23h651q33 0 56 23t23 55v652q0 32-23 55t-56 23h-651zM814 375v1q0 5-1 11-4 16-15.5 27t-27.5 13q-9 2-17 2h-186v162q0 23-15.5 38t-38.5 15v0 0q-23 0-38.5-15t-15.5-38v-162h-187q-8 0-16-2-17-2-28.5-13t-15.5-27q-1-6-1-11v-2q0-6 1-11 4-16 15.5-27t28.5-13q8-3 16-3h187v-161q0-23 15.5-38.5t38.5-15.5v0 0q23 0 38.5 15.5t15.5 38.5v161h186q8 0 17 3 16 2 27.5 13t15.5 27q1 5 1 11v1z" />
<glyph unicode="&#xe656;" glyph-name="sqminus" d="M838-81h-651q-58 0-98.5 41t-40.5 98v652q0 57 40.5 98t98.5 41h651q58 0 98.5-41t40.5-98v-652q0-57-40.5-98t-98.5-41zM187 788q-32 0-55-23t-23-55v-652q0-32 23-55t55-23h651q33 0 56 23t23 55v652q0 32-23 55t-56 23h-651zM459 429h-187q-8 0-16-2-17-2-28.5-13t-15.5-27q-1-6-1-11v-2q0-6 1-11 4-16 15.5-27t28.5-13q8-3 16-3h481q8 0 17 3 16 2 27.5 13t15.5 27q1 5 1 11v2q0 5-1 11-4 16-15.5 27t-27.5 13q-9 2-17 2h-294z" />
<glyph unicode="&#xe657;" glyph-name="yunbiaodanlogo" d="M800 138h-2l1 48q21 0 50 7t46 24 16 45q0 21-14.5 39t-32 28.5-39.5 18.5-31.5 10-14.5 3q-17 3-20 19.5t12 25.5q3 2 6.5 5t9 10 5.5 15-3 20q-7 17-26 22.5t-28.5 4-15.5-2.5q-12-3-21.5 4t-9.5 19q0 4-0.5 11t-4.5 25.5-10 35-20 34.5-33 28q-45 24-91.5 18t-81.5-25-53-43q-17-24-26-58t-9.5-48.5-0.5-22.5v-272h389v-48h-413q-10 0-17 7t-7 17v295q-1 13 0.5 31.5t12.5 58.5 32 68q25 34 71 58.5t103.5 30 113.5-24.5q76-40 91-149 75 4 100-56 16-40-5-76 22-7 41.5-17t41-26 34.5-40 14-52q1-48-31-80-19-19-50-30.5t-48.5-13-30.5-1.5zM260 142q-22 0-46 4.5t-51.5 16-49 29-35.5 46-14 63.5q0 63 41 103 16 16 38 27.5t40 17 38 8 27 3 13 0.5l-1-48q-81-2-121-42-26-26-26-69 0-25 10-45t27-31.5 34-19 36-10.5 27.5-3.5 13.5-0.5zM407 488h148v-49h-148v49zM407 392h228v-48h-228v48zM407 296h295v-48h-295v48z" />
<glyph unicode="&#xe658;" glyph-name="baomingshenqing" d="M865-41h-707q-18 0-31.5 13t-13.5 32v757q0 19 13.5 32t31.5 13h707q18 0 31.5-13t13.5-32v-757q0-19-13.5-32t-31.5-13zM162 8h699v749h-699v-749zM742 289q0 41-7 59t-38 38q-52 34-189 34-133 0-181-34-28-19-37-37t-9-60h461zM624 577q0-47-33.5-81t-81-34-81 34-33.5 81.5 33.5 81 81 33.5 81-33.5 33.5-81.5v0zM281 230h457v-40h-457v40zM284 138h456v-40h-456v40z" />
<glyph unicode="&#xe659;" glyph-name="dengjihuizong" d="M759 540v141q0 19-10.5 32t-24.5 13h-132v80q0 7-5 11.5t-11 4.5h-253q-6 0-11-4.5t-5-11.5v-80h-132q-14 0-24.5-13t-10.5-32v-582q0-19 10.5-32t24.5-13h252v-96h300l197 191v391h-165zM339 790h221v-64h-221v64zM214 687h470v-111h-470v111zM732 34v120h120zM892 185h-192v-195h-241v518h433v-323z" />
<glyph unicode="&#xe65a;" glyph-name="liucheng" d="M824 337q-3 50-39.5 84t-90.5 34v0q-51-2-86-41-7-7-10-14l-167 15q-5 48-41 77l70 125q18-2 26-2 52 0 88 36t36 87q0 52-36.5 88t-87.5 36q-51 1-87.5-35t-36.5-87q0-52 37-86l-73-130q-15 2-24 2v0q-50-2-86-41-35-39-31-90 3-50 38.5-84t85.5-34h6q51 2 86 41 14 16 19 27l158-15v-6q1-38 23-68l-59-106h-11q-51 0-87-36t-36-88q0-51 36-87.5t87-36.5q52 0 88 36t36 88q0 58-46 96l50 90q19-7 42-7h7q50 2 86 41 32 39 30 91zM486.5 792q21.5 0 37-15.5t15.5-37-15.5-37-37-15.5-37 15.5-15.5 37 15.5 37 37 15.5zM348 366q-16-16-37-18h-2q-22 0-37 15t-16 35q-2 22 14 38t39 18q20 0 35.5-15t16.5-35q0-20-13-38zM531.5-25q-21.5 0-37 15.5t-15.5 37 15.5 37 37 15.5 37-15.5 15.5-37-15.5-37-37-15.5zM739 295q-16-16-37-18h-2q-22 0-37 14.5t-15 35.5q-2 22 13.5 37.5t38.5 17.5q21 0 36.5-14.5t15.5-35.5q2-20-13-37z" />
<glyph unicode="&#xe65b;" glyph-name="weiguanlian" d="M410 493l70 128h26q51 0 86 36t35 85q0 52-36 87t-85 35q-48 0-85-37t-37-85q0-51 38-89l-70-128h-26q-60 0-89-39-32-32-32-89 5-49 39.5-82t81.5-33h7q45 0 83 38 3 3 9.5 12.5t9.5 13.5l64-7 19 71-64 6q-10 51-44 77zM506 794q23 0 37-15.5t14-36.5q0-23-15.5-37t-35.5-14q-23 0-37.5 15.5t-14.5 35.5 16 36 36 16zM365 365q-13-13-32-13v0q-21 0-36 14t-15 37q0 13 12 39 13 12 32 12 21 0 36.5-14t15.5-37q8-17-13-38zM845 339q-5 49-40.5 82t-87.5 33v0q-45 0-83-38l-2-2h-1l-7-7-1-2-4-4-2-1-2-2-1-2-6-6q0-5-6.5-26t-6.5-31v-7q0-38 26-64l-58-108h-13q-51 0-86-36.5t-35-85.5q0-52 36-87t85-35q52 0 87 36.5t35 85.5q0 28-12.5 54.5t-32.5 41.5l51 90q13-7 45-7h7q44 0 83 39 32 42 32 89zM550-26q-23 0-37 15.5t-14 36.5q0 23 15.5 37t35.5 14q23 0 37.5-15.5t14.5-36-14.5-36-37.5-15.5zM762 294q-5-9-16.5-14t-22.5-5v0q-20 0-35.5 14t-15.5 37q0 13 13 39 9 19 38 19 21 0 36-14t15-37q0-13-12-39zM545 563h38l-1-109-39 1zM627 435l-25 19 57 84 26-20zM563 179h-38l13 109 38-6zM448 218l-26 19 64 77 32-20z" />
<glyph unicode="&#xe65c;" glyph-name="tongji" d="M576 445q4 420 0 420 119 0 214-54.5t148.5-150.5 53.5-215h-416zM958 358q0-92-36-176.5t-96.5-145-144-96.5-175-36-175 36-144 96.5-96.5 145-36 177 36 177 96.5 145 144 97 174.5 36.5q6 0 18-1t17-1v-401h414q3-17 3-53v0 0zM921 372h-415v406q-113 0-209-56t-151.5-153-55.5-210.5 55.5-210.5 151.5-153.5 209-56.5 209 56.5 151.5 153 55.5 210.5v23l-1-9z" />
<glyph unicode="&#xe65d;" glyph-name="tupian" d="M512-128q-139 0-257 68.5t-186.5 186.5-68.5 257 68.5 257 186.5 186.5 257 68.5q102 0 195.5-39t161.5-105.5 110-158.5 45-193v-16q0-139-68.5-257t-186.5-186.5-257-68.5zM511.5 878q-100.5 0-192-39t-157.5-105-105-157.5-39-192 39-192 105-157.5 157.5-105 191.5-39q22 0 43 2 125 10 228.5 78t163 177 59.5 237q0 100-39 191.5t-105 157.5-157.5 105-192 39zM183 162l658-3-163 233-102-138-194 270zM777.5 555.5q0.5 27.5-19 47t-46.5 19.5-46.5-19-19.5-46.5 19-47 46.5-19.5 46.5 19 19.5 46.5z" />
<glyph unicode="&#xe65e;" glyph-name="dengjihuizong1" d="M759 540v141q0 19-10.5 32t-24.5 13h-132v80q0 7-5 11.5t-11 4.5h-253q-6 0-11-4.5t-5-11.5v-80h-132q-14 0-24.5-13t-10.5-32v-582q0-19 10.5-32t24.5-13h252v-96h300l197 191v391h-165zM339 790h221v-64h-221v64zM214 687h470v-111h-470v111zM732 34v120h120zM892 185h-192v-195h-241v518h433v-323z" />
<glyph unicode="&#xe65f;" glyph-name="liebiao1" d="M922 347h-566q-16 0-27 11t-11 26.5 11 26.5 27 11h566q15 0 26-11t11-26.5-11-26.5-26-11v0zM922 647h-566q-16 0-27 11t-11 26.5 11 26.5 27 11h566q15 0 26-11t11-26.5-11-26.5-26-11v0zM137 9q-32 0-54 22t-22 53 22 53 53.5 22 53.5-22 22-53-22-53-53-22v0zM137 309q-32 0-54 22t-22 53.5 22 53.5 53.5 22 53.5-22 22-53.5-22-53.5-53-22v0zM137 610q-32 0-54 22t-22 53 22 53 53.5 22 53.5-22 22-53-22-53-53-22v0zM356 122h566q15 0 26-11t11-26.5-11-26.5-26-11h-566q-16 0-27 11t-11 26.5 11 26.5 27 11v0z" />
<glyph unicode="&#xe679;" glyph-name="fenxiang" d="M805 131q-73 0-117-58l-307 183q6 22 6 42 0 4-1 13l307 185q44-51 112-51 60 0 103 42.5t43 103.5-43 103.5-103.5 42.5-103.5-42.5-43-103.5q0-23 8-46l-305-158q-23 36-60 57.5t-81 21.5q-70 0-119-49t-49-118.5 49-118.5 119-49q74 0 124 56l319-165q-5-19-5-37 0-61 43-103.5t103.5-42.5 103.5 42.5 43 103.5-43 103.5-103 42.5z" />
<glyph unicode="&#xe709;" glyph-name="duigou" d="M508.5 865q-97.5 0-186.5-38t-153-102.5-102-153.5-38-186.5 38-186.5 102-153 153-102 186.5-38 186.5 38 153.5 102 102.5 153 38 186.5-38 186.5-102.5 153.5-153.5 102.5-186.5 38zM776 517l-316-316q-11-11-26-11t-27 11l-165 166q-10 11-10 26t10.5 25.5 25.5 10.5 26-10l141-142 290 292q10 10 25.5 10t25.5-10q11-12 11-26.5t-11-25.5z" />
<glyph unicode="&#xe70a;" glyph-name="jiantou1" d="M32 649l484-527 476 529z" />
<glyph unicode="&#xe70b;" glyph-name="tianxie" d="M781-51h-704v704h563l45 45h-653v-794h794v646l-45-38v-563zM448 301h-19v38l435 429-26 26-460-461-7-83h-13v-20h20v13l83 7 461 460-26 26zM922 864l-52-45 84-83 44 51z" />
<glyph unicode="&#xe70c;" glyph-name="touxiang" d="M512.5 865q-97.5 0-186-38.5t-153-102.5-103-153-38.5-186 38.5-186 103-153.5 153-102.5 186-38 186 38 153 102.5 102.5 153.5 38 186-38 186-102.5 153-153 102.5-186 38.5zM99 385q0 112 55.5 207t151 151 207 56 207-56 151-151 55.5-207q0-150-96-264-9 9-30 18-31 15-52 18t-56 18l-90 36v66q3 2 7.5 7t14 26.5 15.5 50.5q12-4 17.5 7.5t5.5 28.5q0 3 1.5 11t2 16 0 16-4.5 12.5-11 4.5q6 30 6 73-5 45-37.5 76t-94.5 31q-53 0-90.5-32.5t-42.5-74.5q0-43 6-73-9 4-11-14-3-24 5-46 0-12 5-23t13-7q3-29 12-50t16-27l8-6v-67q-18-12-90-42-35-15-56-18t-52-18q-41-30-47-37-101 134-101 283z" />
<glyph unicode="&#xe70d;" glyph-name="geren" d="M107-96q-11 4-14.5 9.5t-3.5 18.5q5 187 142 310 67 60 155 88 1 0 6 2l-5 3q-77 39-120 114-25 44-33 105-10 88 32 163 56 102 170 137 31 8 56 10 3 0 4 1h30q4-1 11.5-1.5t11.5-1.5q56-7 110-38 93-58 123-167 16-55 7-110-21-137-143-206-57-33-124-35-61-2-102-11-96-25-165-89-68-64-99-146-16-47-21-88-3-30-3-43 0-18-16-23-1 0-1-1-3-1-8-1zM512.5 349q97.5 0 166 69t68.5 166-69 166.5-166.5 69.5-166.5-69.5-69-166.5 69.5-166 167-69zM909-96q-1 0-1.5 0.5t-1.5 0.5q-14 5-16 21-3 43-5 63-7 53-35 107-39 77-106 129-14 9-10 25 3 11 13.5 14.5t21.5-3.5q18-15 20-16 63-54 101-130 26-52 37-110 8-38 8-78 0-17-19-23h-7z" />
<glyph unicode="&#xe70e;" glyph-name="xiangxia" d="M986 557l-397-397q-29-29-74-29t-73 29l-404 397q-19 19 0.5 38t38.5 0l397-397q25-12 38-12 19 0 32 12l397 397q19 19 38 0 7-6 7-19 9-10 0-19z" />
<glyph unicode="&#xe70f;" glyph-name="xiangzuo" d="M685 864l-480-480 480-480 102 102-384 378 378 378-96 102z" />
<glyph unicode="&#xe710;" glyph-name="sousuo1" d="M1024-32l-307 288q77 110 77 224 0 97-49.5 181.5t-134 134-182 49.5-181.5-49.5-133.5-134-49.5-181.5 49.5-181.5 133.5-134 182-49.5q133 0 237 83l300-275zM102 480q0 88 44 163.5t119.5 119 163.5 43.5 163-43.5 119-119 44-163.5-44-163.5-119-119-163-43.5-163.5 43.5-119.5 119-44 163.5z" />
<glyph unicode="&#xe711;" glyph-name="sousuo2" d="M1024-32l-307 288q77 110 77 224 0 97-49.5 181.5t-134 134-182 49.5-181.5-49.5-133.5-134-49.5-181.5 49.5-181.5 133.5-134 182-49.5q133 0 237 83l300-275zM102 480q0 88 44 163.5t119.5 119 163.5 43.5 163-43.5 119-119 44-163.5-44-163.5-119-119-163-43.5-163.5 43.5-119.5 119-44 163.5z" />
<glyph unicode="&#xe712;" glyph-name="xiangyou" d="M307 864l-96-102 378-378-384-378 102-102 480 480-480 480z" />
<glyph unicode="&#xe713;" glyph-name="home" d="M1018 378l-506 473-506-473q-4-5-4-16.5t4-15.5q5-10 16.5-10t15.5 10l474 435 474-442q6-6 19-6t19 6q0 26-6 39zM864 365q-10 0-18-8t-8-18v-377h-198v262h-256v-262h-198v384q0 9-8 17t-18 8-18-8-8-17v-423h295v263h160v-263h294v423q5 9-1.5 14t-17.5 5zM691 717h147v-128q0-10 8-18t18-8 18 8 8 18v179h-199q-9 0-17-8t-8-17.5 8-17.5 17-8z" />
<glyph unicode="&#xe714;" glyph-name="tianjia" d="M947 339h-390v-390q0-19-13-32t-32-13-32 13-13 32v390h-390q-19 0-32 13t-13 32 13 32 32 13h390v390q0 19 13 32t32 13 32-13 13-32v-390h390q19 0 32-13t13-32-13-32-32-13z" />
<glyph unicode="&#xe715;" glyph-name="fangxingweixuanzhong" d="M832-32h-640q-40 0-68 28t-28 68v640q0 40 28 68t68 28h640q40 0 68-28t28-68v-640q0-40-28-68t-68-28zM192 736q-13 0-22.5-9.5t-9.5-22.5v-640q0-13 9.5-22.5t22.5-9.5h640q13 0 22.5 9.5t9.5 22.5v640q0 13-9.5 22.5t-22.5 9.5h-640z" />
<glyph unicode="&#xe716;" glyph-name="fangxingxuanzhong-fill" d="M832 800h-640q-40 0-68-28t-28-68v-640q0-40 28-68t68-28h640q40 0 68 28t28 68v640q0 40-28 68t-68 28zM727 458l-256-259v-1q-2-1-7-4-1-1-2-1.5t-2-1.5q-6-2-12-2t-12 2q-1 1-2 1.5t-1 1.5q-6 3-7 4v1h-1l-126 129q-9 10-9 23t9.5 22.5 23 9 22.5-9.5l103-106 234 236q9 9 22.5 9t22.5-9.5 9.5-22.5-9.5-22z" />
<glyph unicode="&#xe717;" glyph-name="tianjia1" horiz-adv-x="1026" d="M514 896q-104 0-199-40.5t-163.5-109-109-163.5-40.5-199 40.5-199 109-163.5 163.5-109 199-40.5 199 40.5 163.5 109 109 163.5 40.5 199-40.5 199-109 163.5-163.5 109-199 40.5zM513.5-75q-93.5 0-178.5 36t-146.5 97.5-97.5 147-36 178.5 36 178.5 97.5 147 146.5 97.5 178.5 36 178.5-36 146.5-97.5 98-147 36.5-178.5-36.5-178.5-98-147-146.5-97.5-178.5-36zM774 403h-241v241q0 11-8 18.5t-19 7.5-18.5-7.5-7.5-18.5v-241h-241q-11 0-18.5-8t-7.5-18.5 7.5-18.5 18.5-8h241v-241q0-11 7.5-18.5t18.5-7.5 19 7.5 8 18.5v241h241q11 0 18.5 8t7.5 18.5-7.5 18.5-18.5 8z" />
<glyph unicode="&#xe718;" glyph-name="fujian" d="M932 460v0l-370 366q-10 9-24 9t-23.5-9.5-9.5-23 10-23.5l373-368v-1q70-71 69-170t-72-169q-72-70-173.5-70t-173.5 70v0 0l-425 420q-46 45-46 109t45.5 109 110.5 45 110-45v0 0l441-435h1q19-19 19-46.5t-19.5-47-47-19.5-47.5 19v0q-1 1-1 2l-318 313q-10 10-24 10t-23.5-9.5-9.5-23.5 9-23l318-314q1-1 2-1 39-39 94.5-39t94.5 38.5 39 93.5-39 93v0l-1 1-440 435h-1l-7 8-6 4q-65 55-152.5 52t-149.5-64-65-147.5 53-150.5l4-6 8-7 428-422q91-89 219.5-88.5t219.5 90.5q92 90 92 217.5t-92 217.5z" />
<glyph unicode="&#xe719;" glyph-name="edit" d="M937 662l-147 147q-12 12-29 12t-29-12l-578-578q-4-4-5-10l-73-242q-4-14 6.5-24.5t24.5-6.5l242 73q5 1 10 5v0 1l20 19 558 558q12 12 12 29t-12 29v0zM136 8l55 185 130-130-185-55zM361 98l-135 135 450 451 135-136-450-450zM846 583l-135 135 50 51 135-136z" />
<glyph unicode="&#xe71a;" glyph-name="favor_fill" d="M957 491.5q-6 18.5-25 21.5l-271 42-120 259q-9 18-29 18v0 0q-9 0-17.5-5.5t-11.5-12.5l-122-258-271-41q-8-1-15.5-7.5t-9.5-14.5q-7-18 7-32l196-202-47-285v-5q0-17 14-26 16-12 33-2l242 133 242-134q7-4 15-4h1q13 0 22.5 9.5t9.5 22.5q0 6-2 11l-45 279 197 201q13 14 7 32.5z" />
<glyph unicode="&#xe71b;" glyph-name="info_fill" d="M512 830q-91 0-173.5-35.5t-142-95-95-142-35.5-173.5 35.5-173.5 95-142 142-95 173.5-35.5 173.5 35.5 142 95 95 142 35.5 173.5-35.5 173.5-95 142-142 95-173.5 35.5zM544 160q0-13-9.5-22.5t-22.5-9.5-22.5 9.5-9.5 22.5v288q0 13 9.5 22.5t22.5 9.5 22.5-9.5 9.5-22.5v-288zM512 544q-20 0-34 14t-14 34 14 34 34 14 34-14 14-34-14-34-34-14z" />
<glyph unicode="&#xe71c;" glyph-name="guanbi" d="M14-70q-10-9-9.5-22.5t10-22.5 23-8.5 23.5 9.5l949 952q10 9 9.5 22.5t-10 22.5-23 8.5-23.5-9.5l-949-952zM963-114q10-9 23.5-9.5t23 8.5 10 22.5-9.5 22.5l-949 952q-10 9-23.5 9.5t-23-8.5-10-22.5 9.5-22.5z" />
<glyph unicode="&#xe71d;" glyph-name="time" d="M512 832q-185 0-316.5-131.5t-131.5-316.5 131.5-316.5 316.5-131.5 316.5 131.5 131.5 316.5-131.5 316.5-316.5 131.5zM512 0q-104 0-192.5 51.5t-140 140-51.5 192.5 51.5 192.5 140 140 192.5 51.5 192.5-51.5 140-140 51.5-192.5-51.5-192.5-140-140-192.5-51.5v0zM672 384h-160v224q0 13-9.5 22.5t-22.5 9.5-22.5-9.5-9.5-22.5v-256q0-13 9.5-22.5t22.5-9.5h192q13 0 22.5 9.5t9.5 22.5-9.5 22.5-22.5 9.5z" />
<glyph unicode="&#xe71e;" glyph-name="favor" d="M767-64q-8 0-15 4l-242 134-242-133q-17-10-33 2-14 9-14 26v5l47 285-196 202q-14 14-8 32 3 8 10.5 14t14.5 8l156 26q13 3 23.5-5t13-21-5.5-23.5-21-13.5l-95-16 166-170q11-12 8-28l-39-235 200 110q15 8 31-1l199-110-38 236q-3 16 9 27l164 169-225 34q-17 3-24 18l-100 213-100-212q-5-12-17.5-16.5t-24.5 1-16.5 18 0.5 24.5l130 274q8 18 29 18v0q8 0 16.5-5.5t12.5-12.5l120-259 271-42q19-3 25-21.5t-7-32.5l-197-201 46-285q3-20-14-31-8-6-18-6z" />
<glyph unicode="&#xe71f;" glyph-name="heji" d="M634 473l121 151h-91l-120-151h-60l-121 151h-90l121-151h-121v-60h211v-90h-211v-60h211v-121h60v121h210v60h-210v90h210v60h-120zM33 383q0-98 38-187t102.5-153.5 153.5-102.5 187-38 187 38 153.5 102.5 102.5 153.5 38 187-38 187-102.5 153.5-153.5 102.5-187 38-187-38-153.5-102.5-102.5-153.5-38-187v0zM92 382.5q0 114.5 56.5 211.5t153.5 153.5 211.5 56.5 211.5-56.5 153.5-153.5 56.5-211.5-56.5-211.5-153.5-153-211.5-56-211.5 56-153.5 153-56.5 211.5z" />
<glyph unicode="&#xe720;" glyph-name="info" d="M512-62q-91 0-173.5 35.5t-142 95-95 142-35.5 173.5 35.5 173.5 95 142 142 95 173.5 35.5 173.5-35.5 142-95 95-142 35.5-173.5-35.5-173.5-95-142-142-95-173.5-35.5zM512 766q-104 0-192-51t-139-139-51-192 51-192 139-139 192-51 192 51 139 139 51 192-51 192-139 139-192 51zM464 592q0-20 14-34t34-14 34 14 14 34-14 34-34 14-34-14-14-34zM512 128q-13 0-22.5 9.5t-9.5 22.5v288q0 13 9.5 22.5t22.5 9.5 22.5-9.5 9.5-22.5v-288q0-13-9.5-22.5t-22.5-9.5z" />
<glyph unicode="&#xe721;" glyph-name="tupian1" d="M922 746q22 0 38-16t16-39v-614q0-23-16-39t-38-16h-820q-22 0-38 16t-16 39v614q0 23 16 39t38 16h820zM922 794h-820q-42 0-72-30t-30-73v-614q0-43 30-73t72-30h820q42 0 72 30t30 73v614q0 43-30 73t-72 30zM270 585.5q0-35.5-25-60.5t-60-25-60 25-25 60.5 25 60.5 60 25 60-25 25-60.5zM79 102h862l-233 502-234-359-163 152z" />
<glyph unicode="&#xe722;" glyph-name="touxiang1" d="M512.5 865q-97.5 0-186-38.5t-153-102.5-103-153-38.5-186 38.5-186 103-153.5 153-102.5 186-38 186 38 153 102.5 102.5 153.5 38 186-38 186-102.5 153-153 102.5-186 38.5zM99 385q0 112 55.5 207t151 151 207 56 207-56 151-151 55.5-207q0-150-96-264-9 9-30 18-31 15-52 18t-56 18l-90 36v66q3 2 7.5 7t14 26.5 15.5 50.5q12-4 17.5 7.5t5.5 28.5q0 3 1.5 11t2 16 0 16-4.5 12.5-11 4.5q6 30 6 73-5 45-37.5 76t-94.5 31q-53 0-90.5-32.5t-42.5-74.5q0-43 6-73-9 4-11-14-3-24 5-46 0-12 5-23t13-7q3-29 12-50t16-27l8-6v-67q-18-12-90-42-35-15-56-18t-52-18q-41-30-47-37-101 134-101 283z" />
<glyph unicode="&#xe723;" glyph-name="gengduo1" d="M224 288q-40 0-68 28t-28 68 28 68 68 28 68-28 28-68-28-68-68-28zM512 288q-40 0-68 28t-28 68 28 68 68 28 68-28 28-68-28-68-68-28zM800 288q-40 0-68 28t-28 68 28 68 68 28 68-28 28-68-28-68-68-28z" />
<glyph unicode="&#xe724;" glyph-name="liucheng1" d="M845 339q-5 49-40.5 82t-87.5 33q-45 0-83-38l-13-13-167 13q-10 51-44 77l70 128h26q51 0 86 36t35 85q0 52-36 87t-85 35q-48 0-85-37t-37-85q0-51 38-89l-70-128h-26q-60 0-89-39-32-42-32-89 5-49 39.5-82t81.5-33h7q45 0 83 38 3 3 9.5 12.5t9.5 13.5l160-13v-7q0-38 26-64l-58-108h-13q-51 0-86-36.5t-35-85.5q0-52 36-87t85-35q52 0 87 36.5t35 85.5q0 28-12.5 54.5t-32.5 41.5l51 90q13-7 45-7h7q44 0 83 39 18 18 25 38.5t7 50.5zM506 794q23 0 37-15.5t14-36.5q0-23-15.5-37t-35.5-14q-23 0-37.5 15.5t-14.5 35.5 16 36 36 16zM371 365q-25-13-38-13-21 0-36 14t-15 37q0 13 12 39 13 12 32 12 21 0 36.5-14t15.5-37q6-13-7-38zM550-26q-23 0-37 15.5t-14 36.5q0 23 15.5 37t35.5 14q23 0 37.5-15.5t14.5-36-14.5-36-37.5-15.5zM762 294q-5-9-16.5-14t-22.5-5q-20 0-35.5 14t-15.5 37q0 13 13 39 9 19 38 19 21 0 36-14t15-37q0-13-12-39z" />
<glyph unicode="&#xe725;" glyph-name="bianji" d="M326 17l-181 181 501 501 181-181zM943 719l-96 96q-17 18-43 17t-45-20l-91-91 181-181 91 91q19 19 20 45t-17 43zM128 169l-64-233 233 64z" />
<glyph unicode="&#xe726;" glyph-name="homelan" d="M864 339v-365q0-19-19-19h-237q-19 0-19 19v205q0 19-19 19h-116q-19 0-19-19v-205q0-19-19-19h-237q-19 0-19 19v365q0 13 6 13l333 314q5 4 13 4t13-4l333-314q6-6 6-13zM723 640q0-6-13-6l-115 108-77 71h-6l-474-435q-6-6-7-16t7-16q6-6 16-7.5t16 7.5l436 409h6l435-409q3-3 6-4.5l5-2.5h2q13 0 19 7 5 4 5 15.5t-5 16.5l-121 108v250q0 5-1 5.5t-6 0.5h-128q-5 0-5.5-0.5t-0.5-5.5v-96h6z" />
<glyph unicode="&#xe727;" glyph-name="gerenlan" d="M80-127q-12 4-16 10t-4 20q6 198 153 330 68 62 165 92l3 1t4 2q-5 2-6 3-34 17-71.5 52.5t-56.5 68.5q-12 22-22.5 54.5t-13.5 57.5q-10 95 34 175 60 111 182 145 25 7 60 10 3 0 4 1h32q15-3 24-3 64-7 118-42 102-66 131-178 16-62 7-117-22-147-152-220-26-15-64.5-25.5t-68.5-10.5q-67-3-109-13-98-22-175-93-46-42-83.5-114.5t-44.5-133.5q-2-30-2-46 0-18-18-25-1 0-1-1h-9zM936-127q-1 0-1.5 0.5l-0.5 0.5q-16 5-18 22-3 46-6 68-10 60-38 115-17 33-50.5 73.5t-62.5 63.5q-11 7-11 20 0 3 1 7 2 12 14.5 16t22.5-4q2-1 21-17 29-25 60.5-65.5t48.5-73.5q20-39 34-97t14-101v-2q0-18-20-25-3-1-8-1z" />
<glyph unicode="&#xe728;" glyph-name="PPT" d="M781 6q-19 0-19-19v-32q0-5-4-9t-9-4h-666q-5 0-9 4t-4 9v858q0 5 4 9t9 4h512v-148q0-19 19-19h148v-153q0-20 19-20t19 20v172q0 13-13 39l-134 134q-26 13-39 13h-531q-19 0-35-16t-16-35v-858q0-19 16-35t35-16h666q19 0 35 16t16 35v32q0 19-19 19zM749 698h-115v115zM621 301h-39v-71h39q19 0 32 9t13 23q0 39-45 39zM928 442h-614q-26 0-45-18.5t-19-45.5v-282q0-25 18-44.5t46-19.5h620q26 0 45 18t19 46v288q-5 25-23.5 41.5t-46.5 16.5zM435 205h-38v-51q0-6-5.5-13t-13.5-7q-13 0-13 20v160q0 5 4 12t9 7h57q34 0 55.5-18t21.5-46.5-21.5-46-55.5-17.5zM621 205h-39v-51q0-6-5-13t-14-7q-13 0-13 20v160q0 5 4.5 12t8.5 7h58q34 0 55.5-18t21.5-46.5-21.5-46-55.5-17.5zM890 307q-4 0-7-3t-6-3h-45v-141q0-13-6.5-19.5t-12.5-6.5q-13 0-13 7-6 6-6 19v141h-45q-13 0-13 6-6 7-6 13t6 13q3 0 6.5 3t6.5 3h128q13 0 13-6 6-7 6-13t-6-13zM435 301h-38v-71h38q20 0 32.5 9t12.5 23q0 39-45 39v0z" />
<glyph unicode="&#xe729;" glyph-name="DOC" d="M371 301h-38v-135h38q30 0 50.5 18t20.5 46q0 34-18.5 52.5t-52.5 18.5zM595 307q-28 0-46-20.5t-18-50 18-50 46-20.5 46 20.5 18 50.5q5 28-15 49t-49 21zM928 442h-653q-25 0-44.5-18.5t-19.5-45.5v-282q0-25 18-44.5t46-19.5h659q26 0 45 18t19 46v288q-5 25-23.5 41.5t-46.5 16.5zM371 141h-51q-13 0-13 19v154q0 5 4.5 12t8.5 7h51q44 0 73.5-27t29.5-69q0-44-27.5-70t-75.5-26zM595 134q-42 0-69 29.5t-27 73.5q0 42 28.5 72t67.5 30q43 0 69.5-29t26.5-73q5-43-23.5-73t-72.5-30zM890 166q-26-25-71-25-42 0-69 29t-27 73q0 43 28.5 73t67.5 30q32 0 71-26 0-13 6-19v0q0-10-8-14t-18 1q-19 19-51 19-28 0-46-20.5t-18-50 18-50 46-20.5q23 0 51 20 7 6 13 6 5 0 9-4t4-9q0-3-1.5-6t-3.5-5zM781 6q-19 0-19-19v-32q0-5-4-9t-9-4h-666q-5 0-9 4t-4 9v858q0 5 4 9t9 4h512v-148q0-19 19-19h148v-153q0-20 19-20t19 20v172q0 13-13 39l-134 134q-26 13-39 13h-531q-19 0-35-16t-16-35v-858q0-19 16-35t35-16h666q19 0 35 16t16 35v32q0 19-19 19zM749 698h-115v115z" />
<glyph unicode="&#xe72a;" glyph-name="PDF" d="M870 13q-19 0-19-19v-32q0-5-4-9t-9-4h-665q-5 0-9 4t-4 9v851q0 5 4 9t9 4h512v-148q0-19 19-19h147v-704q0-19 19.5-19t19.5 19v730q0 13-13 38l-135 135-17 8.5t-8.5 2.5-12.5 1h-531q-19 0-35-16t-16-35v-857q0-20 16-36t35-16h665q20 0 36 16t16 36v32q0 6-5.5 12.5t-14.5 6.5zM838 704h-115v115zM326 90q-46 0-64 44v7q0 38 58 83 45 38 134 70v7q23 34 32 70-48 68-57 141l-0.5 6t-0.5 11.5 1 14.5 3 17 6 17.5 10 16.5q31 31 77 13 6-3 11.5-7.5t14-21 10.5-39.5-5-65.5-25-96.5q26-39 45-52 67 20 141 20 12 0 35-9t35-30q15-29-6-64v-6q-26-26-64-26-48 0-115 39-13 6-32 25-52 0-90-19-69-137-122-160-12-6-32-6zM301 141q13-13 25-13 13 0 20 6 33 22 83 103-26-12-48.5-23t-31.5-16l-10-6q-38-31-38-51zM608 294q10-9 0 0 58-38 96-38 26 0 38 13 7 6 7 25-5 9-16.5 14.5t-22.5 5.5q-64-13-102-20zM506 307q12 0 25 7l-19 19q0-3-3-13t-3-13zM493 576q-7 0-12-3t-7-3q-7-13-7-52 9-53 39-102 14 54 15.5 92.5t-3.5 49.5l-6 12q-6 6-19 6z" />
<glyph unicode="&#xe72b;" glyph-name="XLS" d="M781 6q-19 0-19-19v-32q0-5-4-9t-9-4h-666q-5 0-9 4t-4 9v858q0 5 4 9t9 4h512v-148q0-19 19-19h148v-160q0-19 19-19t19 19v179q0 13-13 39l-134 134q-26 13-39 13h-531q-19 0-35-16t-16-35v-858q0-19 16-35t35-16h666q19 0 35 16t16 35v32q0 19-19 19zM749 698h-115v108zM928 442h-653q-25 0-44.5-18.5t-19.5-45.5v-282q0-25 18-44.5t46-19.5h659q26 0 45 18t19 46v288q-5 25-23.5 41.5t-46.5 16.5zM493 141l-7-7h-25l-7 7q-6 6-6 13l-38 57-39-57q0-4-3-7t-3-6q0-7-7-7l-6-6h-6q-7 0-13 6-7 0-7 13 0 3 2 6.5t5.5 9 5.5 10.5l45 70-32 58q0 3-1.5 6t-3.5 5l-1 2v12q0 7 6 13 3 0 6.5 3.5t6.5 3.5q13 0 13-7 0-3 3-9.5t3-9.5l32-51 32 51q0 3 3 6.5t3 6.5l7 6 6 7h7q6 0 12-7 7 0 7-13 0-2-2-5.5t-5.5-9-5.5-10.5l-38-58 44-70q3-3 4.5-6l2.5-5v-15q5 0 5-3t-5-3zM678 141q-3 0-6-3.5t-6-3.5h-103q-13 0-19 6.5t-6 19.5v160q0 13 6 19.5t13 6.5q13 0 13-7 12-13 12-19v-147h84q12 0 12-7 7-6 7-12 0-13-7-13zM864 160q-9-17-26-26-12-6-44-6-26 0-52 13-3 3-12.5 9.5t-12.5 9.5q-7 6-7 26 0 6 6.5 12.5t13 6.5 13-6.5 6.5-12.5q0-4 3-10t3-10q0-2 2-4t5.5-4 5.5-4q3 0 9.5-3.5t9.5-3.5q26 0 32 7 13 12 13 19 0 13-6.5 19t-19.5 13q-2 0-10 3t-15 3q-7 3-19.5 6.5t-19.5 6.5q-12 6-25 19-7 7-7 32 0 19 7 32 13 13 25.5 19.5t38 6.5 32.5-7q13 0 25.5-12.5t12.5-19.5q0-3 3.5-9.5t3.5-9.5q0-6-6.5-12.5t-13-6.5-13 6.5-6.5 12.5q-3 3-6 9.5t-7 9.5q-6 7-25 7t-26-7q-13-12-13-18.5t7-13.5l6-6q3 0 6.5-3t6.5-3q13 0 19-7 7 0 16.5-3t15.5-3q3-3 13-6.5t13-6.5q13-13 13-19 6-7 6-26 5 5 5-3-1-7-5-16v0z" />
<glyph unicode="&#xe72c;" glyph-name="guanbi2fill" d="M512 832q-185 0-316.5-131.5t-131.5-316.5 131.5-316.5 316.5-131.5 316.5 131.5 131.5 316.5-131.5 316.5-316.5 131.5zM695 246q9-9 9-22.5t-9.5-23-22.5-9.5-23 10l-137 138-138-137q-10-9-23-9t-22.5 9.5-9.5 22.5 10 23l138 136-138 138q-9 9-9 22.5t9.5 23 22.5 9.5 23-10l137-138 138 137q10 9 23 9t22.5-9.5 9.5-22.5-10-23l-138-136z" />
<glyph unicode="&#xe72d;" glyph-name="shouquan" d="M979 552l-436-434q-8-9-19.5-9t-20.5 9l-8 8h-1l-9 10-42 42-188 189q-9 8-9 19.5t9 19.5l59 60q8 8 20 8t20-8l169-171 357 355q8 9 20 9t20-9l59-59q8-8 8-19.5t-8-19.5zM727 685q-18 16-29.5 42.5t-13.5 44.5l-2 18q-102 18-204 18-45 0-96-4.5t-79-9.5l-29-4q-1-8-3-20t-13.5-40-28.5-44q-19-16-48.5-26.5t-45-12.5-20.5-2q-8-134 3-249 10-99 41-175.5t103-135.5q38-31 91-62t87-47.5 34-15.5q101 44 173 91 70 46 116 106.5t62 153.5q1 6 2 17l84 83q-5-64-14-115-10-59-31-108.5t-51.5-87-61.5-65-71-53.5q-39-25-91-52.5t-84-42.5l-33-15q-17 8-45.5 21t-97 53-114.5 77-78.5 81.5-51 94.5-28.5 96.5-15 103.5q-6 62-7 137t1 119l2 44q10 0 25.5 2.5t52.5 15 59 32.5q21 19 34.5 50t16.5 53l4 22q124 22 246 22 55 0 116.5-5.5t95.5-11.5l34-5q1-9 3-24t16.5-49 35.5-54q27-24 78-38l-61-57q-45 11-69 33z" />
<glyph unicode="&#xe72e;" glyph-name="xuanze" d="M512 864q-129 0-239.5-65t-175.5-175.5-65-239.5 65-239.5 175.5-175.5 239.5-65 239.5 65 175.5 175.5 65 239.5-65 239.5-175.5 175.5-239.5 65zM512-19q-110 0-201.5 53.5t-143.5 144.5-52 198.5 52 200 143.5 148 201.5 55.5 201.5-54 143.5-146.5 52-203-52-201.5-143.5-143-201.5-52zM717 576l-282-294-128 134q-9 10-26 10t-31-10q-10-10-10-26.5t10-31.5l160-160q6-6 31.5-6t32.5 6l320 320q9 10 9 27t-9 31q-19 8-39 7t-38-7z" />
<glyph unicode="&#xe72f;" glyph-name="weixuanze" d="M512 864q-97 0-185.5-38.5t-153-103-103-153-38.5-185.5 38.5-185.5 103-153 153-103 185.5-38.5 185.5 38.5 153 103 103 153 38.5 185.5-38.5 185.5-103 153-153 103-185.5 38.5zM512-19q-110 0-201.5 53.5t-143.5 144.5-52 198.5 52 200 143.5 148 201.5 55.5 201.5-54 143.5-146.5 52-203-52-201.5-143.5-143-201.5-52z" />
<glyph unicode="&#xe730;" glyph-name="more" d="M224 289q-40 0-68 28t-28 68 28 68 68 28 68-28 28-68-28-68-68-28zM512 289q-40 0-68 28t-28 68 28 68 68 28 68-28 28-68-28-68-68-28zM800 289q-40 0-68 28t-28 68 28 68 68 28 68-28 28-68-28-68-68-28z" />
<glyph unicode="&#xe731;" glyph-name="pdf" d="M870 14q-19 0-19-19v-32q0-5-4-9t-9-4h-665q-5 0-9 4t-4 9v851q0 5 4 9t9 4h512v-148q0-19 19-19h147v-704q0-19 19.5-19t19.5 19v730q0 13-13 38l-135 135-17 8.5t-8.5 2.5-12.5 1h-531q-19 0-35-16t-16-35v-857q0-20 16-36t35-16h665q20 0 36 16t16 36v32q0 6-5.5 12.5t-14.5 6.5zM838 705h-115v115zM326 91q-46 0-64 44v7q0 38 58 83 45 38 134 70v7q23 34 32 70-48 68-57 141l-0.5 6t-0.5 11.5 1 14.5 3 17 6 17.5 10 16.5q31 31 77 13 6-3 11.5-7.5t14-21 10.5-39.5-5-65.5-25-96.5q26-39 45-52 67 20 141 20 12 0 35-9t35-30q15-29-6-64v-6q-26-26-64-26-48 0-115 39-13 6-32 25-52 0-90-19-69-137-122-160-12-6-32-6zM301 142q13-13 25-13 13 0 20 6 33 22 83 103-26-12-48.5-23t-31.5-16l-10-6q-38-31-38-51zM608 295q10-9 0 0 58-38 96-38 26 0 38 13 7 6 7 25-5 9-16.5 14.5t-22.5 5.5q-64-13-102-20zM506 308q12 0 25 7l-19 19q0-3-3-13t-3-13zM493 577q-7 0-12-3t-7-3q-7-13-7-52 9-53 39-102 14 54 15.5 92.5t-3.5 49.5l-6 12q-6 6-19 6z" />
<glyph unicode="&#xe732;" glyph-name="circheck" d="M512 865q-129 0-239.5-65t-175.5-175.5-65-239.5 65-239.5 175.5-175.5 239.5-65 239.5 65 175.5 175.5 65 239.5-65 239.5-175.5 175.5-239.5 65zM512-18q-110 0-201.5 53.5t-143.5 144.5-52 198.5 52 200 143.5 148 201.5 55.5 201.5-54 143.5-146.5 52-203-52-201.5-143.5-143-201.5-52zM717 577l-282-294-128 134q-9 10-26 10t-31-10q-10-10-10-26.5t10-31.5l160-160q6-6 31.5-6t32.5 6l320 320q9 10 9 27t-9 31q-19 8-39 7t-38-7z" />
<glyph unicode="&#xe900;" glyph-name="draggable" d="M227.556 135.111h568.889c19.637 0 35.556-15.919 35.556-35.556v0c0-19.637-15.919-35.556-35.556-35.556h-568.889c-19.637 0-35.556 15.919-35.556 35.556v0c0 19.637 15.919 35.556 35.556 35.556zM227.556 419.556h568.889c19.637 0 35.556-15.919 35.556-35.556v0c0-19.637-15.919-35.556-35.556-35.556h-568.889c-19.637 0-35.556 15.919-35.556 35.556v0c0 19.637 15.919 35.556 35.556 35.556zM227.556 704h568.889c19.637 0 35.556-15.919 35.556-35.556v0c0-19.637-15.919-35.556-35.556-35.556h-568.889c-19.637 0-35.556 15.919-35.556 35.556v0c0 19.637 15.919 35.556 35.556 35.556z" />
<glyph unicode="&#xe901;" glyph-name="sysvar" d="M341.333 827.733h-273.067v-273.067h-68.267v341.333h341.333v-68.267zM341.333-59.733v-68.267h-341.333v341.333h68.267v-273.067h273.067zM682.667 827.733v68.267h341.333v-341.333h-68.267v273.067h-273.067zM682.667-59.733h273.067v273.067h68.267v-341.333h-341.333v68.267zM204.8 486.4h136.533v-409.6h-136.533v409.6zM430.080 622.933h136.533v-409.6h-136.533v409.6zM682.667 554.667h136.533v-409.6h-136.533v409.6z" />
<glyph unicode="&#xe902;" glyph-name="qrcode" d="M192 800h179.2c51.2 0 96-44.8 96-96v-179.2c0-51.2-44.8-96-96-96h-179.2c-51.2 0-96 44.8-96 96v179.2c0 57.6 38.4 96 96 96zM192 736c-19.2 0-32-12.8-32-32v-179.2c0-12.8 12.8-32 32-32h179.2c12.8 0 32 19.2 32 32v179.2c0 19.2-12.8 32-32 32h-179.2zM192 339.2h179.2c51.2 0 96-44.8 96-96v-179.2c0-51.2-44.8-96-96-96h-179.2c-51.2 0-96 44.8-96 96v179.2c0 51.2 38.4 96 96 96zM192 275.2c-19.2 0-32-12.8-32-32v-179.2c0-19.2 12.8-32 32-32h179.2c19.2 0 32 12.8 32 32v179.2c0 19.2-12.8 32-32 32h-179.2zM588.8 339.2h307.2c19.2 0 32-12.8 32-32s-12.8-32-32-32h-307.2c-19.2 0-32 12.8-32 32s12.8 32 32 32zM556.8 0v166.4c0 19.2 12.8 32 32 32s32-12.8 32-32v-166.4c0-19.2-12.8-32-32-32s-32 12.8-32 32zM697.6 64v96c0 19.2 12.8 32 32 32s32-12.8 32-32v-96c0-19.2-12.8-32-32-32s-32 19.2-32 32zM838.4 32v134.4c0 19.2 12.8 32 32 32s32-12.8 32-32v-134.4c0-19.2-12.8-32-32-32s-32 12.8-32 32zM652.8 736c-19.2 0-32-12.8-32-32v-179.2c0-19.2 12.8-32 32-32h179.2c19.2 0 32 12.8 32 32v179.2c0 19.2-12.8 32-32 32h-179.2zM652.8 800h179.2c51.2 0 96-44.8 96-96v-179.2c0-51.2-44.8-96-96-96h-179.2c-51.2 0-96 44.8-96 96v179.2c0 57.6 44.8 96 96 96z" />
<glyph unicode="&#xe903;" glyph-name="badge" horiz-adv-x="916" d="M689.853 556.463h-414.989c-16.168 0-32.337 21.558-32.337 43.116 0 26.947 16.168 43.116 32.337 43.116h414.989c16.168 0 32.337-21.558 32.337-43.116s-16.168-43.116-32.337-43.116zM792.253 885.221h-619.789c-70.063 0-123.958-53.895-123.958-123.958v-829.979c0-37.726 43.116-64.674 75.453-48.505l296.421 150.905c37.726 21.558 80.842 21.558 118.568 0l296.421-150.905c37.726-16.168 75.453 5.389 75.453 48.505v829.979c5.389 70.063-53.895 123.958-118.568 123.958z" />
<glyph unicode="&#xe904;" glyph-name="bill" horiz-adv-x="964" d="M783.059-91.859h-626.447c-84.329 0-156.612 66.259-156.612 150.588v680.659c0 84.329 72.282 150.588 156.612 150.588h427.671c42.165 0 84.329-18.071 114.447-48.188l192.753-204.8c30.118-24.094 42.165-66.259 42.165-102.4v-475.859c0-84.329-66.259-150.588-150.588-150.588zM156.612 835.765c-54.212 0-96.376-42.165-96.376-90.353v-680.659c0-54.212 42.165-90.353 96.376-90.353h620.424c54.212 0 96.376 42.165 96.376 90.353v469.835c0 24.094-6.024 48.188-24.094 66.259l-192.753 204.8c-18.071 18.071-42.165 30.118-66.259 30.118h-433.694zM903.529 552.659h-265.035c-12.047 0-30.118 12.047-30.118 30.118v283.106h60.235v-252.988h234.918v-60.235zM216.847 558.682h301.176v-60.235h-301.176v60.235zM216.847 347.859h301.176v-60.235h-301.176v60.235z" />
<glyph unicode="&#xe905;" glyph-name="bracedown" horiz-adv-x="1280" d="M1149.12 680l-509.12-438.080-509.12 438.080-82.88-71.040 592-520.96 592 520.96-82.88 71.040z" />
<glyph unicode="&#xe906;" glyph-name="briefcase" horiz-adv-x="1069" d="M739.061 223.722h-485.287c-22.261 0-35.617 17.809-35.617 35.617s17.809 35.617 35.617 35.617h485.287c22.261 0 35.617-17.809 35.617-35.617s-17.809-35.617-35.617-35.617v0zM512 815.861l146.922-146.922h-293.843l146.922 146.922zM894.887 668.939h-133.565l-209.252 209.252c-22.261 22.261-57.878 22.261-80.139 0l-209.252-209.252h-133.565c-71.235 0-133.565-57.878-133.565-133.565v-494.191c0-71.235 57.878-133.565 133.565-133.565h761.322c71.235 0 133.565 57.878 133.565 133.565v494.191c0 75.687-57.878 133.565-129.113 133.565v0z" />
<glyph unicode="&#xe907;" glyph-name="circle" horiz-adv-x="967" d="M950.044 275.911l-56.889 11.378c45.511 193.422-51.2 398.222-233.244 483.556-159.289 73.956-347.022 39.822-472.178-79.644l102.4 5.689v-56.889l-227.556-11.378 34.133 51.2c136.533 176.356 386.844 238.933 591.644 142.222s312.889-324.267 261.689-546.133zM477.867-93.867c-68.267 0-136.533 17.067-204.8 45.511-199.111 96.711-312.889 324.267-261.689 546.133l56.889-11.378c-45.511-193.422 51.2-398.222 233.244-483.556 159.289-73.956 352.711-39.822 477.867 79.644l-102.4-5.689v56.889l227.556 5.689-34.133-45.511c-96.711-119.467-244.622-187.733-392.533-187.733zM352.711 486.4h261.689v-56.889h-261.689v56.889zM352.711 298.667h261.689v-56.889h-261.689v56.889z" />
<glyph unicode="&#xe908;" glyph-name="disable" d="M512-99.556c-267.378 0-483.556 216.178-483.556 483.556s216.178 483.556 483.556 483.556c267.378 0 483.556-216.178 483.556-483.556s-216.178-483.556-483.556-483.556zM512 810.667c-233.244 0-426.667-193.422-426.667-426.667s193.422-426.667 426.667-426.667 426.667 193.422 426.667 426.667-193.422 426.667-426.667 426.667zM853.931 657.249l-643.618-643.618-40.226 40.226 643.618 643.618 40.226-40.226z" />
<glyph unicode="&#xe909;" glyph-name="draw" d="M811.323-80.738h-614.4c-86.646 0-157.538 70.892-157.538 157.538v614.4c0 86.646 70.892 157.538 157.538 157.538h433.231c23.631 0 39.385-15.754 39.385-39.385s-23.631-47.262-39.385-47.262h-433.231c-39.385 0-78.769-31.508-78.769-78.769v-614.4c0-39.385 31.508-78.769 78.769-78.769h614.4c39.385 0 78.769 31.508 78.769 78.769v370.215c0 23.631 15.754 39.385 39.385 39.385s39.385-15.754 39.385-39.385v-370.215c-7.877-78.769-78.769-149.662-157.538-149.662zM441.108 265.846c-7.877 0-23.631 0-31.508 7.877-15.754 23.631-15.754 47.262 0 63.015l512 512c15.754 15.754 39.385 15.754 55.138 0s15.754-39.385 0-55.138l-512-512c-7.877-7.877-15.754-15.754-23.631-15.754z" />
<glyph unicode="&#xe90a;" glyph-name="eye" horiz-adv-x="1365" d="M675.84-87.040c-348.16 0-634.88 204.8-634.88 464.213s286.72 464.213 634.88 464.213c348.16 0 634.88-204.8 634.88-464.213s-286.72-464.213-634.88-464.213zM675.84 766.293c-314.027 0-566.613-177.493-566.613-395.947s252.587-395.947 566.613-395.947c314.027 0 566.613 177.493 566.613 395.947-6.827 218.453-259.413 395.947-566.613 395.947zM675.84 151.893c-122.88 0-218.453 95.573-218.453 218.453h68.267c0-81.92 68.267-150.187 150.187-150.187s150.187 68.267 150.187 150.187c0 81.92-68.267 150.187-150.187 150.187-40.96 0-81.92-20.48-109.227-47.787l-54.613 54.613c40.96 47.787 102.4 68.267 163.84 68.267 122.88 0 218.453-95.573 218.453-218.453s-102.4-225.28-218.453-225.28z" />
<glyph unicode="&#xe90b;" glyph-name="file" horiz-adv-x="1088" d="M734.933 492.8h-384c-12.8 0-32 12.8-32 32s19.2 32 32 32h377.6c19.2 0 32-12.8 32-32s-6.4-32-25.6-32zM734.933 249.6h-384c-19.2 0-32 12.8-32 32s19.2 32 32 32h377.6c19.2 0 32-12.8 32-32s-12.8-32-25.6-32zM914.133-110.83h-723.2c-76.8 0-140.8 64-140.8 140.8v723.2c0 76.8 64 140.8 140.8 140.8h723.2c76.8 0 140.8-64 140.8-140.8v-723.2c-6.4-76.8-70.4-140.8-140.8-140.8zM190.933 829.97c-44.8 0-76.8-38.4-76.8-76.8v-723.2c0-38.4 32-76.8 76.8-76.8h723.2c38.4 0 76.8 32 76.8 76.8v723.2c0 38.4-32 76.8-76.8 76.8h-723.2z" />
<glyph unicode="&#xe90c;" glyph-name="pc" horiz-adv-x="1240" d="M948.547 1.347c26.947 0 43.116-21.558 43.116-43.116 0-26.947-21.558-43.116-43.116-43.116h-657.516c-26.947 0-43.116 21.558-43.116 43.116 0 26.947 21.558 43.116 43.116 43.116h657.516zM1088.674 885.221c59.284 0 107.789-48.505 107.789-107.789v-565.895c0-59.284-48.505-107.789-107.789-107.789h-943.158c-59.284 0-107.789 48.505-107.789 107.789v565.895c0 59.284 48.505 107.789 107.789 107.789h943.158zM873.095 464.842c5.389 21.558-5.389 43.116-21.558 53.895l-210.189 113.179c-21.558 10.779-48.505 5.389-59.284-16.168s-5.389-48.505 16.168-59.284l70.063-37.726h-301.811c-26.947 0-43.116-21.558-43.116-43.116 0-26.947 21.558-43.116 43.116-43.116h463.495c16.168-5.389 37.726 10.779 43.116 32.337z" />
<glyph unicode="&#xe90d;" glyph-name="share" d="M783.059-79.812h-608.376c-78.306 0-144.565 66.259-144.565 144.565v608.376c0 78.306 66.259 144.565 144.565 144.565h319.247c18.071 0 30.118-12.047 30.118-30.118s-12.047-30.118-30.118-30.118h-319.247c-48.188 0-84.329-36.141-84.329-84.329v-608.376c0-48.188 36.141-84.329 84.329-84.329h608.376c48.188 0 84.329 36.141 84.329 84.329v313.224c0 18.071 12.047 30.118 30.118 30.118s30.118-12.047 30.118-30.118v-313.224c0-78.306-66.259-144.565-144.565-144.565zM375.576 230.604c0 0-6.024 0 0 0-24.094 6.024-30.118 18.071-30.118 36.141 90.353 475.859 572.235 481.882 572.235 481.882 18.071 0 30.118-12.047 30.118-30.118s-12.047-30.118-30.118-30.118c-12.047 0-433.694-6.024-512-433.694-6.024-18.071-18.071-24.094-30.118-24.094zM791.2 531.781c-6.024 0-18.071 0-24.094 6.024-12.047 12.047-12.047 30.118 0 42.165l138.541 138.541-138.541 132.518c-12.047 12.047-12.047 30.118 0 42.165s30.118 12.047 42.165 0l156.612-156.612c12.047-12.047 12.047-30.118 0-42.165l-150.588-156.612c-6.024-6.024-18.071-6.024-24.094-6.024z" />
<glyph unicode="&#xe90e;" glyph-name="trashbin" horiz-adv-x="939" d="M870.4 742.4h-256c0 85.333-76.8 153.6-162.133 153.6s-153.6-68.267-153.6-153.6h-256c-25.6 0-42.667-17.067-42.667-42.667s17.067-42.667 42.667-42.667h827.733c25.6 0 42.667 17.067 42.667 42.667s-17.067 42.667-42.667 42.667zM452.267 819.2c42.667 0 76.8-34.133 76.8-76.8h-153.6c0 42.667 34.133 76.8 76.8 76.8v0zM768 580.267c25.6 0 42.667-17.067 42.667-42.667v-631.467c0-17.067-17.067-34.133-42.667-34.133h-622.933c-25.6 0-42.667 17.067-42.667 42.667v631.467c0 25.6 17.067 42.667 42.667 42.667s42.667-17.067 42.667-42.667v-588.8h554.667v588.8c-8.533 17.067 8.533 34.133 25.6 34.133zM375.467 119.467c0-25.6-17.067-42.667-42.667-42.667s-34.133 17.067-34.133 42.667v349.867c0 25.6 17.067 42.667 42.667 42.667s34.133-17.067 34.133-42.667v-349.867zM614.4 119.467c0-25.6-17.067-42.667-42.667-42.667s-42.667 17.067-42.667 42.667v349.867c0 25.6 17.067 42.667 42.667 42.667s42.667-17.067 42.667-42.667v-349.867z" />
<glyph unicode="&#xe90f;" glyph-name="genTask" horiz-adv-x="910" d="M802.133 826.733h-147.911v34.133c5.689 17.067-11.378 34.133-28.444 34.133h-352.711c-17.067 0-34.133-17.067-34.133-34.133v-34.133h-142.222c-51.2 0-96.711-39.822-96.711-96.711v-768c0-45.511 45.511-91.022 96.711-91.022h711.111c51.2 0 96.711 45.511 96.711 96.711v762.311c-5.689 56.889-45.511 96.711-102.4 96.711zM307.2 826.733h290.133v-62.578h-290.133v62.578zM836.267-32.289c0-17.067-17.067-34.133-34.133-34.133h-705.422c-17.067 0-34.133 17.067-34.133 34.133v762.311c0 17.067 17.067 34.133 34.133 34.133h147.911v-34.133c0-17.067 17.067-34.133 34.133-34.133h352.711c17.067 0 34.133 17.067 34.133 34.133v34.133h147.911c17.067 0 34.133-17.067 34.133-34.133l-11.378-762.311zM637.156 468.333l-221.867-250.311-136.533 125.156c-11.378 11.378-34.133 11.378-45.511 0s-11.378-34.133 0-45.511l159.289-142.222c5.689-5.689 17.067-11.378 22.756-11.378 11.378 0 17.067 5.689 22.756 11.378l244.622 267.378c5.689 5.689 11.378 17.067 11.378 22.756 0 11.378-5.689 17.067-11.378 22.756-11.378 11.378-34.133 11.378-45.511 0v0z" />
<glyph unicode="&#xe910;" glyph-name="yprint" d="M915.911 718.644h-85.333v79.644c0 56.889-39.822 96.711-91.022 96.711h-455.111c-51.2 0-91.022-39.822-91.022-96.711v-79.644h-85.333c-62.578 0-108.089-45.511-108.089-102.4v-267.378c0-56.889 45.511-102.4 108.089-102.4h79.644v-238.933c0-62.578 51.2-113.778 113.778-113.778h426.667c62.578 0 113.778 51.2 113.778 113.778v238.933h79.644c56.889 0 102.4 45.511 108.089 102.4v267.378c-5.689 56.889-51.2 102.4-113.778 102.4zM244.622 798.289c0 22.756 17.067 45.511 45.511 45.511h449.422c22.756 0 45.511-17.067 45.511-45.511v-79.644h-540.444v79.644zM790.756 7.533c0-34.133-28.444-62.578-62.578-62.578h-432.356c-17.067 0-34.133 5.689-45.511 17.067s-17.067 28.444-17.067 45.511v341.333c0 34.133 28.444 62.578 62.578 62.578h426.667c34.133 0 62.578-28.444 62.578-62.578v-341.333zM972.8 348.867c0-28.444-22.756-56.889-56.889-56.889h-79.644v51.2c0 62.578-51.2 113.778-113.778 113.778h-426.667c-28.444 0-56.889-11.378-79.644-34.133-22.756-17.067-34.133-45.511-34.133-79.644v-51.2h-73.956c-28.444 0-56.889 22.756-56.889 56.889v267.378c0 28.444 22.756 56.889 56.889 56.889h813.511c28.444 0 56.889-22.756 56.889-56.889l-5.689-267.378zM870.4 627.622c-22.756 0-39.822-17.067-39.822-39.822s22.756-34.133 39.822-34.133 39.822 17.067 39.822 39.822-17.067 34.133-39.822 34.133v0zM699.733 280.6h-375.467c-11.378 0-22.756-11.378-22.756-22.756s11.378-22.756 22.756-22.756h375.467c11.378 0 22.756 11.378 22.756 22.756s-5.689 22.756-22.756 22.756v0zM699.733 127h-375.467c-11.378 0-22.756-11.378-22.756-22.756s11.378-22.756 22.756-22.756h375.467c11.378 0 22.756 11.378 22.756 22.756 5.689 11.378-5.689 22.756-22.756 22.756v0z" />
<glyph unicode="&#xe911;" glyph-name="print" horiz-adv-x="914" d="M768.043 895h-621.831c-82.051 0-146.212-60.549-146.212-137.955v-734.672c0-77.234 64.333-137.955 146.212-137.955h621.659c79.299 0 146.212 63.129 146.212 137.955v734.672c0.172 77.406-64.161 137.955-146.040 137.955zM865.403 22.372c0-47.476-45.584-89.103-97.532-89.103h-621.659c-55.561 0-97.532 38.359-97.532 89.103v734.672c0 50.744 41.971 89.103 97.532 89.103h621.659c55.561 0 97.532-38.359 97.532-89.103v-734.672zM207.277 625.626h499.873c12.213 0 24.426 11.869 24.426 23.91s-12.213 23.91-24.426 23.91h-499.873c-12.213 0-24.426-11.869-24.426-23.91s12.213-23.91 24.426-23.91zM207.277 512.269h499.873c12.213 0 24.426 11.869 24.426 23.91 0 11.869-12.213 23.91-24.426 23.91h-499.873c-12.213 0-24.426-11.869-24.426-23.91s12.213-23.91 24.426-23.91zM725.384 392.719h-536.512c-36.639 0-67.086-17.889-67.086-41.799v-131.419c0-23.91 30.446-49.196 67.086-49.196h109.745v-34.403c0-44.552 36.639-78.094 85.319-78.094h146.212c48.68 0 85.319 33.543 85.319 78.094v34.403h109.745c36.639 0 67.086 25.286 67.086 49.196v131.419c0 23.91-30.446 41.799-66.913 41.799zM566.786 185.442v-49.54c0-17.373-14.965-29.414-36.639-29.414h-146.212c-21.502 0-36.639 12.041-36.639 29.414v77.75c0 17.373 14.965 29.414 36.639 29.414h146.212c21.502 0 36.639-12.041 36.639-29.414v-28.21zM743.617 228.789c0-8.429-6.881-15.309-15.309-15.309h-112.669c0 44.552-36.639 78.094-85.319 78.094h-146.212c-48.68 0-85.319-33.543-85.319-78.094v0h-112.669c-8.429 0-15.309 6.881-15.309 15.309v100.8c0 8.429 6.881 15.309 15.309 15.309h542.36c8.429 0 15.309-6.881 15.309-15.309l-0.172-100.8z" />
<glyph unicode="&#xe912;" glyph-name="upload" d="M979.2-129h-934.4c-25.6 0-44.8 19.2-44.8 51.2v288c0 25.6 19.2 44.8 44.8 44.8s70.4-12.8 70.4-38.4v-230.4h793.6v230.4c0 25.6 38.4 32 70.4 32s44.8-19.2 44.8-44.8v-275.2c0-38.4-19.2-57.6-44.8-57.6zM800 421.4l-230.4 249.6v-454.4c0-25.6-32-64-57.6-64s-57.6 38.4-57.6 64v454.4l-230.4-249.6c-19.2-6.4-57.6-6.4-83.2 0-19.2 19.2-19.2 44.8 0 64l326.4 332.8c6.4 6.4 6.4 12.8 19.2 12.8 6.4 12.8 25.6 12.8 32 0 6.4 0 19.2-6.4 19.2-6.4l326.4-332.8c19.2-19.2 19.2-44.8 0-64s-44.8-25.6-64-6.4z" />
<glyph unicode="&#xe913;" glyph-name="location" d="M512 575c58.88 0 105.984-47.616 105.984-106.496s-47.616-105.984-106.496-105.984c-58.88 0-105.984 47.616-105.984 106.496 0 28.16 11.264 54.784 30.72 74.752 20.48 19.968 47.616 31.232 75.776 31.232zM512 639c-94.208 0-170.496-76.8-170.496-171.008s76.8-170.496 171.008-170.496c94.208 0 170.496 76.8 170.496 171.008 0 45.056-17.92 88.576-50.176 120.832-31.744 31.744-75.264 49.664-120.832 49.664zM805.376 770.584c-156.672 161.792-414.72 166.4-576.512 9.728-3.072-3.072-6.656-6.656-9.728-9.728-161.792-167.424-161.792-432.64 0-599.552l292.864-300.032 292.864 300.032c161.792 167.424 161.792 432.64 0.512 599.552zM760.832 213.528l-248.832-256-248.832 256c-137.216 141.824-137.216 367.104 0 508.928 133.632 137.728 352.768 140.8 490.496 7.168 2.56-2.56 5.12-5.12 7.168-7.168 137.728-142.336 137.728-367.616 0-508.928z" />
<glyph unicode="&#xe914;" glyph-name="uniE911" d="M512 895c-281.6 0-512-230.4-512-512s230.4-512 512-512 512 230.4 512 512-230.4 512-512 512zM512-26.6c-224 0-409.6 185.6-409.6 409.6s185.6 409.6 409.6 409.6 409.6-185.6 409.6-409.6-185.6-409.6-409.6-409.6zM512 639c-25.6 0-51.2-25.6-51.2-51.2v-204.8c0-25.6 25.6-51.2 51.2-51.2s51.2 25.6 51.2 51.2v204.8c0 25.6-25.6 51.2-51.2 51.2zM512 229.4c-25.6 0-51.2-25.6-51.2-51.2s25.6-51.2 51.2-51.2 51.2 25.6 51.2 51.2-25.6 51.2-51.2 51.2z" />
<glyph unicode="&#xe915;" glyph-name="forbidden" d="M102.4 383c0 96 32 179.2 89.6 249.6l576-576c-70.4-51.2-153.6-89.6-249.6-89.6-230.4 6.4-416 192-416 416zM832 133.4l-576 576c70.4 51.2 153.6 89.6 249.6 89.6 224 0 409.6-185.6 409.6-409.6 6.4-102.4-25.6-185.6-83.2-256zM0 383c0-281.6 230.4-512 512-512s512 230.4 512 512-230.4 512-512 512-512-230.4-512-512z" />
<glyph unicode="&#xe916;" glyph-name="uniE913" d="M512 895c-281.6 0-512-230.4-512-512s230.4-512 512-512 512 230.4 512 512-230.4 512-512 512zM512-26.6c-224 0-409.6 185.6-409.6 409.6s185.6 409.6 409.6 409.6 409.6-185.6 409.6-409.6-185.6-409.6-409.6-409.6zM512 639c-25.6 0-51.2-25.6-51.2-51.2v-204.8c0-25.6 25.6-51.2 51.2-51.2s51.2 25.6 51.2 51.2v204.8c0 25.6-25.6 51.2-51.2 51.2zM512 229.4c-25.6 0-51.2-25.6-51.2-51.2s25.6-51.2 51.2-51.2 51.2 25.6 51.2 51.2-25.6 51.2-51.2 51.2z" />
<glyph unicode="&#xe917;" glyph-name="dashplus" d="M512-113c22.4 0 44.8 0 67.2 3.2l-3.2 32c-19.2-3.2-41.6-3.2-60.8-3.2v-32zM643.2-97c22.4 6.4 41.6 12.8 64 22.4l-12.8 28.8c-19.2-9.6-38.4-16-57.6-19.2l6.4-32zM764.8-42.6c19.2 12.8 38.4 22.4 54.4 38.4l-19.2 22.4c-16-12.8-32-25.6-51.2-35.2l16-25.6zM870.4 40.6c16 16 28.8 32 41.6 51.2l-25.6 19.2c-12.8-16-25.6-32-38.4-48l22.4-22.4zM947.2 146.2c9.6 19.2 19.2 38.4 28.8 60.8l-28.8 12.8c-6.4-19.2-16-38.4-25.6-57.6l25.6-16zM995.2 267.8c6.4 22.4 9.6 41.6 9.6 64l-32 3.2c-3.2-19.2-6.4-41.6-9.6-60.8l32-6.4zM1008 402.2c0 22.4-3.2 44.8-6.4 67.2l-32-6.4c3.2-19.2 6.4-41.6 6.4-60.8h32zM985.6 533.4c-6.4 19.2-16 41.6-25.6 60.8l-28.8-12.8c9.6-19.2 16-38.4 22.4-57.6l32 9.6zM928 651.8c-12.8 19.2-25.6 35.2-38.4 54.4l-25.6-22.4c12.8-16 25.6-32 38.4-48l25.6 16zM841.6 754.2c-16 16-35.2 28.8-51.2 41.6l-19.2-28.8c16-12.8 32-25.6 48-38.4l22.4 25.6zM732.8 827.8c-19.2 9.6-41.6 19.2-60.8 25.6l-9.6-28.8c19.2-6.4 38.4-16 57.6-22.4l12.8 25.6zM608 869.4c-22.4 3.2-44.8 6.4-67.2 9.6l-3.2-32c19.2 0 41.6-3.2 60.8-6.4l9.6 28.8zM473.6 879c-22.4-3.2-44.8-6.4-64-9.6l6.4-32c19.2 3.2 41.6 6.4 60.8 9.6l-3.2 32zM342.4 850.2c-19.2-9.6-38.4-16-60.8-25.6l16-28.8c19.2 9.6 38.4 19.2 57.6 25.6l-12.8 28.8zM227.2 789.4c-19.2-12.8-35.2-28.8-51.2-41.6l22.4-22.4c16 12.8 32 25.6 48 38.4l-19.2 25.6zM128 696.6c-12.8-16-25.6-35.2-38.4-54.4l28.8-16c9.6 19.2 22.4 35.2 35.2 51.2l-25.6 19.2zM60.8 587.8c-9.6-19.2-16-41.6-22.4-60.8l32-9.6c6.4 19.2 12.8 38.4 22.4 57.6l-32 12.8zM22.4 456.6c-3.2-22.4-6.4-44.8-6.4-67.2h32c0 19.2 3.2 41.6 6.4 60.8l-32 6.4zM19.2 325.4c3.2-22.4 6.4-44.8 12.8-64l32 6.4c-6.4 19.2-9.6 41.6-12.8 60.8l-32-3.2zM51.2 197.4c9.6-19.2 19.2-41.6 28.8-60.8l28.8 16c-9.6 19.2-19.2 35.2-25.6 54.4l-32-9.6zM118.4 82.2c12.8-19.2 28.8-35.2 44.8-51.2l22.4 22.4c-16 16-28.8 28.8-41.6 48l-25.6-19.2zM214.4-13.8c19.2-12.8 35.2-25.6 54.4-35.2l16 28.8c-19.2 9.6-35.2 22.4-51.2 35.2l-19.2-28.8zM326.4-77.8c19.2-9.6 41.6-16 64-19.2l6.4 32c-19.2 6.4-38.4 12.8-57.6 19.2l-12.8-32zM457.6-109.8c19.2-3.2 35.2-3.2 54.4-3.2v32c-16 0-35.2 0-51.2 3.2l-3.2-32zM534.4 395.8v192h-35.2v-195.2h-192v-35.2h195.2v-195.2h35.2v195.2h195.2v35.2h-198.4z" />
<glyph unicode="&#xe918;" glyph-name="blocks" d="M0 896h368.64v-368.64h-368.64v368.64zM0 332.8h368.64v-368.64h-368.64v368.64zM563.2 896h368.64v-368.64h-368.64v368.64zM563.2 332.8h368.64v-368.64h-368.64v368.64z" />
<glyph unicode="&#xe919;" glyph-name="enable" d="M903.529 667.106c0 0-6.024 0 0 0-96.376 126.494-234.918 198.776-391.529 198.776-265.035 0-481.882-216.847-481.882-481.882s216.847-481.882 481.882-481.882 481.882 216.847 481.882 481.882c0 18.071-12.047 30.118-30.118 30.118s-30.118-12.047-30.118-30.118c0-234.918-186.729-421.647-421.647-421.647s-421.647 186.729-421.647 421.647 186.729 421.647 421.647 421.647c132.518 0 252.988-60.235 331.294-162.635l-349.365-355.388-162.635 174.682c-12.047 12.047-30.118 12.047-42.165 0s-12.047-30.118 0-42.165l210.824-210.824 409.6 415.624c6.024 6.024 6.024 24.094-6.024 42.165 0 0 0 0 0 0z" />
<glyph unicode="&#xe91a;" glyph-name="minus" d="M512-128c-283.569 0-512 228.431-512 512s228.431 512 512 512 512-228.431 512-512-228.431-512-512-512zM236.308 423.385v-78.769h551.385v78.769h-551.385z" />
<glyph unicode="&#xe91b;" glyph-name="export" horiz-adv-x="951" d="M914.286-98.743c-21.943-14.629-51.2-29.257-80.457-29.257h-716.8c-29.257 0-58.514 14.629-80.457 36.571s-36.571 51.2-36.571 80.457v351.086h73.143v-351.086c0-14.629 7.314-21.943 7.314-29.257 14.629-7.314 21.943-14.629 36.571-14.629h709.486c14.629 0 29.257 7.314 36.571 14.629s14.629 14.629 14.629 29.257v351.086h73.143v-358.4c0-29.257-14.629-58.514-36.571-80.457zM512 749.714v-709.486h-73.143v709.486l-248.686-256-51.2 51.2 336.457 351.086 336.457-351.086-51.2-51.2-248.686 256z" />
<glyph unicode="&#xe91c;" glyph-name="list" horiz-adv-x="1229" d="M348.16 896h880.64v-174.080h-880.64v174.080zM0 896h174.080v-174.080h-174.080v174.080zM0 476.16h174.080v-174.080h-174.080v174.080zM0 46.080h174.080v-174.080h-174.080v174.080zM348.16 476.16h880.64v-174.080h-880.64v174.080zM348.16 46.080h880.64v-174.080h-880.64v174.080z" />
<glyph unicode="&#xe91d;" glyph-name="exclam" d="M512 696.672c-171.969 0-312.672-140.702-312.672-312.672s140.702-312.672 312.672-312.672 312.672 140.702 312.672 312.672-140.702 312.672-312.672 312.672zM512 133.863c-136.794 0-250.137 113.344-250.137 250.137s113.344 250.137 250.137 250.137 250.137-113.344 250.137-250.137-113.344-250.137-250.137-250.137zM543.267 290.198v93.802c0 15.634-15.634 31.267-31.267 31.267h-31.267c-15.634 0-31.267-15.634-31.267-31.267s15.634-31.267 31.267-31.267v-93.802c0-15.634 15.634-31.267 31.267-31.267h31.267c15.634 0 31.267 15.634 31.267 31.267s-15.634 31.267-31.267 31.267zM512 473.893c19.542 0 35.176 15.634 35.176 35.176s-15.634 35.176-35.176 35.176-35.176-15.634-35.176-35.176c0-19.542 15.634-35.176 35.176-35.176z" />
<glyph unicode="&#xe91e;" glyph-name="lock" d="M870.4-128h-768c-36.693 0-65.707 29.013-65.707 65.707v475.307c0 36.693 29.013 65.707 65.707 65.707h124.587v161.28c0 139.093 116.907 256 256 256s256-116.907 256-256v-161.28h124.587c36.693 0 65.707-29.013 65.707-65.707v-482.987c0-29.013-22.187-58.027-58.88-58.027v0zM673.28 640c0 102.4-87.893 190.293-190.293 190.293s-190.293-87.893-190.293-190.293v-161.28c182.613 0 168.107 0 380.587 0v161.28zM870.4 354.987c0 36.693-29.013 65.707-65.707 65.707h-636.587c-36.693-7.68-65.707-36.693-65.707-65.707v-350.72c0-36.693 29.013-65.707 65.707-65.707h636.587c36.693 0 65.707 29.013 65.707 65.707v350.72zM519.68 98.987v-98.987h-65.707v98.987c-58.88 14.507-95.573 65.707-95.573 123.733 0 73.387 58.88 124.587 124.587 124.587 73.387 0 124.587-58.88 124.587-124.587 6.827-58.027-36.693-109.227-87.893-123.733v0zM482.987 289.28c-36.693 0-65.707-29.013-65.707-65.707s29.013-65.707 65.707-65.707 65.707 29.013 65.707 65.707-29.013 65.707-65.707 65.707v0z" />
<glyph unicode="&#xe91f;" glyph-name="chat" d="M443.52-123.52c-17.479 0.253-31.551 14.482-31.551 31.997 0 8.726 3.492 16.635 9.155 22.408l-0.005-0.005 206.72 205.44c5.709 5.822 13.616 9.471 22.376 9.6h273.304c20.147 0 36.48 16.333 36.48 36.48v0 549.12c0 20.147-16.333 36.48-36.48 36.48v0h-823.040c-20.147 0-36.48-16.333-36.48-36.48v0-548.48c0-20.147 16.333-36.48 36.48-36.48v0h276.48c17.673 0 32-14.327 32-32s-14.327-32-32-32v0h-276.48c-55.494 0-100.48 44.986-100.48 100.48v0 548.48c0 55.494 44.986 100.48 100.48 100.48v0h823.040c55.494 0 100.48-44.986 100.48-100.48v0-548.48c0-55.494-44.986-100.48-100.48-100.48v0h-260.48l-197.12-196.48c-5.709-5.822-13.616-9.471-22.376-9.6h-0.024zM448 448c0-35.346 28.654-64 64-64s64 28.654 64 64v0c0 35.346-28.654 64-64 64s-64-28.654-64-64v0zM704 448c0-35.346 28.654-64 64-64s64 28.654 64 64v0c0 35.346-28.654 64-64 64s-64-28.654-64-64v0zM192 448c0-35.346 28.654-64 64-64s64 28.654 64 64v0c0 35.346-28.654 64-64 64s-64-28.654-64-64v0z" />
<glyph unicode="&#xe920;" glyph-name="refresh" d="M320 480c0 17.673-14.327 32-32 32v0h-124.8c59.766 133.051 191.115 224.034 343.714 224.034 1.788 0 3.574-0.012 5.356-0.037l-0.27 0.003c1.719 0.028 3.748 0.045 5.78 0.045 156.883 0 291.267-96.327 347.234-233.063l0.906-2.502c4.756-12.084 16.325-20.481 29.855-20.481 0.079 0 0.158 0 0.237 0.001h-0.012c1.732-0.326 3.724-0.512 5.76-0.512s4.028 0.186 5.961 0.543l-0.201-0.031c12.115 4.741 20.54 16.325 20.54 29.878 0 3.979-0.726 7.788-2.053 11.303l0.073-0.22c-65.746 164.764-223.954 279.071-408.859 279.071-1.836 0-3.668-0.011-5.499-0.034l0.278 0.003c-0.511 0.002-1.116 0.003-1.722 0.003-161.024 0-302.207-84.953-381.172-212.485l-1.106-1.918v86.4c0 17.673-14.327 32-32 32s-32-14.327-32-32v0-192c0-17.673 14.327-32 32-32v0h192c17.673 0 32 14.327 32 32v0zM928 320h-192c-17.673 0-32-14.327-32-32s14.327-32 32-32v0h124.8c-59.766-133.051-191.115-224.034-343.714-224.034-1.788 0-3.574 0.012-5.356 0.037l0.27-0.003c-1.719-0.028-3.748-0.045-5.78-0.045-156.883 0-291.267 96.327-347.234 233.063l-0.906 2.502c-4.677 12.309-16.376 20.897-30.080 20.897-17.727 0-32.097-14.371-32.097-32.097 0-4.022 0.74-7.872 2.091-11.42l-0.074 0.22c66.429-163.765 224.242-277.155 408.539-277.155 1.948 0 3.894 0.013 5.836 0.038l-0.295-0.003c0.511-0.002 1.116-0.003 1.722-0.003 161.024 0 302.207 84.953 381.172 212.485l1.106 1.918v-86.4c0-17.673 14.327-32 32-32s32 14.327 32 32v0 192c0 17.673-14.327 32-32 32v0z" />
<glyph unicode="&#xe921;" glyph-name="copy" d="M896 736h-640c-53.019 0-96-42.981-96-96v0-640c0-53.019 42.981-96 96-96v0h704c17.673 0 32 14.327 32 32v0 704c0 53.019-42.981 96-96 96v0zM928-32h-672c-17.673 0-32 14.327-32 32v0 640c0 17.673 14.327 32 32 32v0h640c17.673 0 32-14.327 32-32v0zM800 832c0 17.673-14.327 32-32 32v0h-631.68c-0.001 0-0.001 0-0.002 0-57.389 0-103.955-46.342-104.318-103.645v-624.035c0-17.673 14.327-32 32-32s32 14.327 32 32v0 624c0.36 21.991 18.272 39.68 40.315 39.68 0.002 0 0.004 0 0.005 0h631.68c17.673 0 32 14.327 32 32v0zM608 544h-64v-192h-192v-64h192v-192h64v192h192v64h-192v192z" />
<glyph unicode="&#xe922;" glyph-name="plus-circle" d="M512 896c-282.77 0-512-229.23-512-512s229.23-512 512-512c282.77 0 512 229.23 512 512v0c0 282.77-229.23 512-512 512v0zM512-64c-247.424 0-448 200.576-448 448s200.576 448 448 448c247.424 0 448-200.576 448-448v0c0-247.424-200.576-448-448-448v0zM544 640h-64v-224h-224v-64h224v-224h64v224h224v64h-224v224z" />
</font>
</defs>
</svg>
